<svg version="1.1" id="Layer_1" xmlns="http://www.w3.org/2000/svg" xmlns:xlink="http://www.w3.org/1999/xlink" x="0px" y="0px"
	 width="100%" viewBox="0 0 1422 1422" enable-background="new 0 0 1422 1422" xml:space="preserve">
<path fill="#FEFFFE" opacity="1.000000" stroke="none" 
	d="
M1.000000,486.000000 
	C1.000000,324.000031 1.000000,162.500061 1.000000,1.000065 
	C474.999878,1.000043 948.999756,1.000043 1422.999756,1.000022 
	C1422.999756,474.999786 1422.999756,948.999573 1422.999878,1422.999512 
	C949.000305,1422.999756 475.000580,1422.999756 1.000425,1422.999878 
	C1.000000,1110.833374 1.000000,798.666687 1.000000,486.000000 
M627.991638,371.017700 
	C627.991638,371.017700 627.920410,371.016968 627.932251,371.639557 
	C628.266846,372.128937 628.601501,372.618317 628.962219,373.033325 
	C628.962219,373.033325 628.884155,373.022156 628.912231,373.676331 
	C629.243713,374.216766 629.575256,374.757233 629.882385,375.719147 
	C629.882385,375.719147 630.162964,376.034637 630.168091,376.627258 
	C630.412354,376.924072 630.656555,377.220886 630.815369,377.819183 
	C630.815369,377.819183 631.061523,378.013092 631.043701,378.607849 
	C631.354797,379.087646 631.665833,379.567444 632.006836,380.008301 
	C632.006836,380.008301 631.957764,380.007965 631.969299,380.646423 
	C632.287720,381.175201 632.606079,381.703979 632.887329,382.662781 
	C632.887329,382.662781 633.159058,382.998138 633.155029,383.674683 
	C633.740234,384.877808 634.325439,386.080933 634.858032,387.687408 
	C634.858032,387.687408 635.117676,388.000519 635.101257,388.673401 
	C635.656921,389.862152 636.212646,391.050903 636.775269,392.102325 
	C636.775269,392.102325 636.650452,392.160034 636.694641,392.895172 
	C637.398743,394.667877 638.102844,396.440613 638.828308,398.075165 
	C638.828308,398.075165 638.692261,398.107300 638.703430,398.853607 
	C639.388977,400.647522 640.074463,402.441437 640.760498,404.088684 
	C640.760498,404.088684 640.627380,404.150360 640.656555,404.953003 
	C640.967896,406.075470 641.254944,407.205322 641.594116,408.319366 
	C655.547974,454.164246 654.775818,500.066101 640.734619,545.586731 
	C636.153564,560.438354 628.816650,574.439880 622.853760,588.888062 
	C622.853760,588.888062 622.860657,588.760742 622.361267,588.989929 
	C622.263916,589.333191 622.166504,589.676392 622.000610,590.027649 
	C622.000610,590.027649 622.039612,590.084656 621.515564,590.459473 
	C620.965881,591.616821 620.416138,592.774170 619.949585,593.946960 
	C619.949585,593.946960 619.942383,593.862732 619.482056,594.059570 
	C619.375366,594.362183 619.268616,594.664856 618.648438,595.437805 
	C595.578552,633.875061 564.939636,664.727295 525.774536,688.149170 
	C526.334290,685.758301 526.665039,684.006226 527.156189,682.300232 
	C532.152344,664.945801 535.752502,647.412598 535.012329,629.185120 
	C533.606323,594.563354 513.364807,569.647400 479.702026,561.687805 
	C458.580933,556.693604 437.031494,557.482727 415.558136,557.483521 
	C415.140320,557.483521 414.722504,557.914795 414.213593,558.194946 
	C414.113129,559.195007 414.013916,560.181885 413.914886,561.168823 
	C410.688568,593.322693 403.914612,624.739258 390.817108,654.293518 
	C381.594543,675.104126 370.293182,694.997864 359.815918,715.247131 
	C346.486389,741.008850 336.869720,767.793091 338.085144,797.324097 
	C339.735260,837.417114 357.275177,868.425842 392.078735,888.990051 
	C406.798370,897.687439 422.847595,903.187988 439.497192,907.024414 
	C473.171021,914.783569 507.479004,918.137146 541.731995,921.839783 
	C594.229675,927.514587 644.022888,942.244507 691.487305,965.353455 
	C733.256226,985.689575 771.947876,1011.126953 810.263367,1037.045898 
	C858.373474,1069.590454 910.926941,1086.651367 968.960083,1086.113892 
	C1017.935364,1085.660400 1066.912354,1084.822998 1115.871216,1083.509766 
	C1131.115967,1083.100708 1146.470581,1081.503052 1161.474854,1078.790405 
	C1178.889160,1075.642212 1193.959473,1067.193359 1205.876709,1053.673340 
	C1221.779785,1035.631226 1224.704346,997.656189 1191.736450,982.325378 
	C1183.490967,978.491028 1174.773071,975.316406 1165.950562,973.148743 
	C1143.657104,967.671387 1121.102417,963.261047 1098.793823,957.840820 
	C1054.185547,947.002625 1016.885925,924.301819 987.462036,888.745850 
	C976.209778,875.148560 964.121704,862.240295 952.347168,849.078308 
	C892.044983,781.670532 831.720825,714.282532 771.189575,646.315063 
	C770.869873,646.088501 770.550110,645.861938 770.260315,645.842651 
	C770.260315,645.842651 770.441406,645.737610 770.315796,645.139709 
	C769.917053,644.702759 769.518250,644.265808 769.087097,643.934509 
	C769.087097,643.934509 769.197571,643.932983 769.100464,643.354614 
	C768.726746,642.924744 768.353027,642.494873 767.932068,641.565186 
	C767.691772,641.353149 767.451538,641.141113 767.072815,640.302795 
	C766.416626,639.484863 765.760376,638.666992 765.065857,637.945740 
	C765.065857,637.945740 765.160706,637.903320 765.027649,637.223450 
	C763.385376,634.766846 761.743103,632.310242 760.067871,629.946777 
	C760.067871,629.946777 760.159851,629.910706 760.062439,629.217834 
	C759.083679,627.610596 758.104919,626.003357 757.195496,624.155457 
	C757.195496,624.155457 756.995850,624.004211 756.931641,623.324585 
	C756.330322,622.364258 755.729065,621.403870 755.197632,620.161682 
	C755.197632,620.161682 754.960083,619.994690 754.906738,619.317932 
	C754.313599,618.358154 753.720459,617.398376 753.205444,616.163574 
	C753.205444,616.163574 752.973816,615.995972 752.940063,615.331543 
	C752.314087,614.188538 751.688110,613.045593 751.024536,611.971680 
	C751.024536,611.971680 751.103210,611.972656 751.082336,611.321167 
	C750.754028,610.781433 750.425720,610.241760 750.131653,609.302551 
	C750.131653,609.302551 749.872375,608.996643 749.868164,608.365784 
	C749.356323,607.479858 748.844421,606.593933 748.279785,605.857422 
	C748.279785,605.857422 748.432739,605.816101 748.396484,605.094238 
	C747.971252,604.243958 747.546082,603.393677 747.194702,602.221313 
	C747.194702,602.221313 746.952454,601.996582 746.950195,601.322327 
	C746.364380,600.142578 745.778503,598.962891 745.155762,597.918030 
	C745.155762,597.918030 745.294617,597.901489 745.272034,597.219666 
	C744.885376,596.429138 744.498657,595.638550 744.073853,594.949280 
	C744.073853,594.949280 744.181519,594.960205 744.163269,594.228333 
	C743.819824,593.608093 743.476379,592.987793 743.249268,592.202148 
	C743.249268,592.202148 743.138550,592.032776 743.107422,591.246582 
	C732.055725,562.009766 727.051758,531.490479 726.521240,500.504456 
	C725.560730,444.406708 725.882996,388.286987 725.671143,332.176422 
	C725.663330,330.106873 725.670166,328.037262 725.670166,326.042023 
	C683.352600,326.042023 641.877197,326.042023 599.606140,326.042023 
	C601.403503,328.156006 602.663208,329.637634 603.955627,331.042480 
	C603.955627,331.042480 603.872192,331.044678 603.993042,331.598480 
	C604.283813,331.817413 604.574585,332.036377 604.856201,332.121155 
	C604.856201,332.121155 604.736938,332.183258 604.889526,332.794342 
	C605.563477,333.574860 606.237488,334.355377 606.945679,335.045532 
	C606.945679,335.045532 606.855713,335.080750 606.994446,335.694458 
	C607.647888,336.489410 608.301392,337.284363 608.991211,338.015289 
	C608.991211,338.015289 608.918518,338.026794 609.025146,338.577301 
	C609.305359,338.801910 609.585510,339.026489 609.854858,339.117035 
	C609.854858,339.117035 609.735779,339.179626 609.870728,339.798615 
	C610.529785,340.598694 611.188843,341.398773 611.890564,342.083435 
	C611.890564,342.083435 611.767578,342.083160 611.863159,342.676758 
	C612.242920,343.118622 612.622742,343.560516 613.000000,344.000000 
	C613.000000,344.000000 612.999084,343.997437 613.098267,344.568695 
	C613.368774,344.833832 613.639221,345.098969 613.947632,345.888000 
	C614.286560,346.260193 614.625549,346.632385 615.070068,347.598236 
	C615.346985,347.879120 615.623901,348.160004 615.922485,348.949097 
	C616.243774,349.311493 616.565063,349.673889 616.986633,350.670135 
	C617.605469,351.513519 618.224365,352.356903 618.868896,353.091461 
	C618.868896,353.091461 618.771729,353.146881 618.901733,353.850342 
	C621.196411,357.980530 623.491028,362.110718 625.832886,366.096954 
	C625.832886,366.096954 625.681885,366.109070 625.718323,366.775696 
	C626.139832,367.529785 626.561340,368.283875 627.007080,369.007019 
	C627.007080,369.007019 626.968079,369.004578 626.960144,369.619751 
	C627.292236,370.106415 627.624390,370.593079 627.991638,371.017700 
M165.162613,298.326752 
	C165.291275,298.622131 165.501923,298.837219 166.083313,299.290405 
	C166.083313,299.290405 166.105347,299.719696 166.047119,300.521210 
	C167.694702,304.014008 169.342285,307.506805 170.434540,311.499207 
	C167.099411,319.320068 164.148285,327.336945 160.292099,334.891876 
	C157.787323,339.799164 153.698563,343.869568 150.778702,348.598480 
	C141.268890,364.000336 131.863953,379.469635 122.641106,395.044708 
	C118.805122,401.522736 115.530777,408.333313 111.386925,415.309662 
	C107.642197,422.503815 103.593796,429.558990 100.223846,436.924591 
	C95.150528,448.013214 90.515778,459.303741 85.762985,470.537384 
	C82.166107,479.038910 78.079979,487.393890 75.262161,496.152100 
	C69.349915,514.528381 64.017143,533.094910 58.671021,551.648010 
	C55.857487,561.412109 53.446358,571.294861 50.987320,581.157410 
	C49.274300,588.027832 47.672310,594.930786 46.236782,601.864014 
	C44.999092,607.841614 43.816780,613.851074 43.055595,619.902466 
	C41.798702,629.894714 40.972157,639.940308 39.834206,649.948608 
	C38.286861,663.557495 35.879765,677.114441 35.175240,690.762512 
	C34.155586,710.515137 34.321281,730.329346 34.004276,750.117554 
	C33.951427,753.416565 34.015144,756.717346 34.084568,760.715149 
	C34.643333,761.716003 35.202099,762.716858 36.436657,764.928162 
	C36.728382,762.346802 36.860718,761.175842 37.004074,759.067017 
	C37.337776,735.294312 37.622887,711.520691 38.042694,687.749512 
	C38.136150,682.457947 38.404911,677.134705 39.106724,671.894897 
	C41.605438,653.239136 43.881210,634.536194 47.087208,615.997375 
	C50.296200,597.441284 53.858196,578.892700 58.491253,560.652222 
	C62.721607,543.997131 67.987335,527.537659 73.888000,511.390747 
	C82.021179,489.134644 91.069206,467.208527 99.952324,445.232819 
	C103.670578,436.034302 107.971077,427.071136 112.628265,417.691101 
	C117.644356,409.016235 122.617867,400.316406 127.687424,391.672882 
	C133.854797,381.157684 139.748199,370.458160 146.408646,360.261963 
	C154.256119,348.248657 162.855652,336.728424 170.973236,324.887543 
	C172.104813,323.236938 172.347198,320.976776 173.737106,319.007812 
	C175.005112,319.689209 176.631485,320.073029 177.483841,321.099548 
	C183.716522,328.605652 189.761322,336.267303 195.935135,343.822906 
	C198.689911,347.194275 201.340118,350.721497 204.518555,353.657501 
	C208.101898,356.967529 212.153946,359.793549 216.143234,362.631714 
	C218.472778,364.289032 221.055649,365.599670 223.571030,366.981659 
	C224.550781,367.519989 225.740570,367.688477 226.694229,368.259888 
	C233.219620,372.169342 239.660706,376.221222 246.220337,380.071472 
	C253.482574,384.334076 261.492798,387.628479 267.946472,392.862213 
	C272.806366,396.803345 277.418762,397.394806 283.162750,398.492615 
	C296.784760,401.096130 310.618042,404.015228 323.008392,411.727478 
	C324.005585,412.817902 325.002808,413.908356 326.807465,415.001068 
	C331.805298,415.611816 337.041260,417.479187 341.754181,416.586212 
	C353.585266,414.344513 364.309235,418.617554 375.387482,420.768982 
	C380.010101,421.666687 384.511200,423.417419 388.909851,425.174896 
	C392.974091,426.798767 396.807281,428.993805 400.786316,430.842377 
	C401.965729,431.390320 403.339081,432.044891 404.547302,431.918976 
	C410.856354,431.261566 416.675568,432.624542 422.207489,435.582947 
	C432.553162,441.115723 442.923798,446.602142 453.232422,452.202850 
	C453.902832,452.567108 454.134338,453.739227 454.570007,454.535522 
	C453.587677,454.930298 452.466125,455.853241 451.644928,455.636810 
	C444.682129,453.801514 437.705383,451.968506 430.864807,449.731262 
	C419.180847,445.909943 407.845978,440.917297 395.196289,440.832336 
	C387.553253,440.781036 379.909088,440.290649 372.273712,439.853180 
	C362.854980,439.313568 353.438385,438.704651 344.035034,437.949341 
	C341.259003,437.726318 338.039429,437.650482 335.873657,436.219757 
	C329.573364,432.057770 322.318298,432.263489 315.650391,432.295502 
	C303.086029,432.355774 290.782776,431.301819 278.806641,427.819794 
	C272.957733,426.119263 267.584137,422.831299 261.896698,420.502899 
	C259.864166,419.670746 257.213501,418.640961 255.417740,419.288849 
	C251.528183,420.692169 249.163116,418.739441 246.364212,416.918915 
	C244.045807,415.410889 241.572372,413.834930 238.945786,413.183655 
	C235.572342,412.347198 231.981598,412.229218 228.475784,412.139099 
	C226.066635,412.077240 221.847076,410.864929 222.304688,414.796631 
	C223.028870,421.018646 223.497940,427.417511 228.076004,432.834473 
	C232.824905,438.453552 236.228745,445.186401 240.663116,451.100555 
	C245.375412,457.385437 250.381546,463.486603 255.675003,469.288788 
	C260.991821,475.116608 267.278442,480.099426 272.281921,486.160889 
	C276.354401,491.094421 280.376892,495.249298 286.444153,497.969696 
	C294.844360,501.736115 302.690948,506.756958 310.695343,511.377991 
	C314.559052,513.608521 319.135071,515.433350 321.789093,518.729675 
	C325.425842,523.246460 329.259399,523.273010 334.117920,522.571045 
	C336.771729,522.187561 339.647278,522.630859 342.316437,523.200073 
	C349.151428,524.657776 355.894714,526.550415 362.737976,527.962463 
	C366.975525,528.836792 371.322113,529.208191 375.631500,529.703064 
	C382.681610,530.512634 389.725189,531.555847 396.801239,531.914307 
	C404.361694,532.297302 411.957947,532.096130 419.536072,531.982849 
	C439.798859,531.679993 460.091431,531.807739 479.951172,536.152588 
	C489.166443,538.168701 497.943329,542.195435 506.911804,545.330994 
	C515.344116,548.279114 520.824341,555.369568 527.870117,560.240662 
	C541.718994,569.815125 549.807983,582.830933 552.899841,599.200378 
	C553.236816,600.984680 553.851074,602.716797 554.340698,604.472046 
	C555.892944,610.036133 557.400574,615.613403 559.029785,621.154907 
	C559.500061,622.754333 560.091614,625.350708 561.034424,625.548218 
	C562.641724,625.885071 564.912537,625.122864 566.295654,624.042603 
	C569.425171,621.598450 572.372620,618.851624 575.052246,615.915833 
	C580.226746,610.246521 585.989746,604.876465 590.005737,598.443970 
	C595.878174,589.038086 599.778992,578.385559 605.802551,569.095947 
	C609.007141,564.153870 611.815369,559.526062 612.654968,553.733887 
	C612.769592,552.942871 613.058594,551.975708 613.614746,551.481689 
	C618.462463,547.176025 618.625549,541.426575 619.096497,535.557434 
	C619.580872,529.520630 620.742737,523.529358 621.783630,517.548645 
	C622.733398,512.091492 624.975159,506.642700 624.809509,501.246613 
	C624.209717,481.703003 626.542358,462.161682 623.275635,442.569000 
	C620.828064,427.889099 618.211670,413.361450 612.637451,399.594788 
	C605.968018,383.123199 598.928406,366.912872 588.410400,352.211029 
	C578.488953,338.343109 567.477722,325.707703 554.853882,314.388367 
	C546.582092,306.971405 538.615173,299.086761 529.653564,292.596375 
	C515.579285,282.403137 500.789429,273.196808 486.284454,263.599976 
	C481.774323,260.615997 477.345490,257.469543 472.631378,254.842651 
	C465.175293,250.687805 457.382477,247.132919 449.962860,242.918076 
	C438.490906,236.401245 427.232971,229.508820 415.845490,222.841843 
	C410.132477,219.497070 404.234161,216.460480 398.598541,212.993729 
	C391.040009,208.344086 383.735443,203.281067 376.170624,198.642120 
	C369.546692,194.580154 362.616425,191.017105 356.001831,186.940933 
	C349.809326,183.124893 343.899933,178.852554 337.781067,174.912918 
	C331.148346,170.642426 331.016510,168.666656 337.066498,163.257141 
	C337.992249,162.429398 338.425659,161.051010 339.398773,159.396988 
	C337.276764,159.205719 336.127991,158.945145 335.006073,159.032028 
	C332.210938,159.248459 329.423676,159.904449 326.641357,159.861282 
	C323.334656,159.809937 320.005920,159.372787 316.752686,158.755371 
	C315.748718,158.564835 314.185760,157.168365 314.250214,156.446472 
	C314.353668,155.287170 315.404938,153.954102 316.433075,153.231354 
	C317.062897,152.788605 318.397156,153.347916 319.415070,153.457230 
	C319.477417,152.826309 319.539734,152.195374 319.602051,151.564453 
	C317.447723,151.512878 314.225006,150.544113 313.336395,151.579178 
	C310.502045,154.880692 308.184570,154.367767 305.249146,152.150757 
	C293.354492,143.167038 280.974548,134.764343 269.599762,125.168068 
	C251.995285,110.316116 235.082504,94.645111 217.814743,79.391228 
	C216.695694,78.402695 215.050308,78.010025 213.988434,77.009247 
	C213.988434,77.009247 213.659912,77.350204 213.829132,76.615784 
	C213.618668,76.008507 213.562866,75.269424 213.174530,74.813721 
	C207.318542,67.941727 201.455368,61.074612 195.468002,54.317905 
	C194.921524,53.701229 193.513275,53.848202 192.478561,53.521187 
	C192.478561,53.521187 192.374222,53.457355 192.719498,52.714539 
	C191.424927,51.515713 190.130341,50.316883 188.919983,49.071903 
	C188.919983,49.071903 188.911087,49.167522 188.776230,48.659904 
	C188.511124,48.443493 188.246033,48.227081 188.000610,48.000408 
	C188.000610,48.000408 187.985947,48.018127 187.998917,47.256210 
	C186.551254,43.115227 185.203018,38.888134 180.000000,38.000000 
	C180.000000,38.000000 179.991898,38.010258 179.994263,37.261494 
	C177.671448,31.443350 175.104797,25.817812 168.934799,23.033104 
	C168.934799,23.033104 168.872589,23.159174 168.948700,22.390532 
	C167.578110,18.163353 166.656601,13.566698 160.401230,12.819322 
	C159.981552,12.963964 159.561859,13.108606 158.722427,12.667554 
	C157.838043,13.286440 156.369949,13.757490 156.169342,14.549554 
	C155.254883,18.160084 154.365417,21.834282 154.068878,25.533836 
	C152.921082,39.853870 151.948349,54.188843 151.035995,68.526237 
	C150.793610,72.335365 150.999390,76.173012 150.346710,79.940445 
	C149.354935,79.534492 148.363159,79.128532 147.971375,78.968163 
	C145.247452,82.297821 142.184341,84.974380 140.467636,88.338104 
	C135.031464,98.989639 133.520493,110.730820 133.149734,122.440399 
	C132.791397,133.757767 133.853226,145.113495 133.893188,156.453751 
	C133.906570,160.254425 131.553970,164.285187 132.253647,167.820755 
	C134.493774,179.140259 131.968491,190.936523 136.104919,202.828827 
	C136.399933,204.112167 136.799469,205.381516 136.973312,206.681061 
	C138.274185,216.405441 139.008942,226.240936 140.943405,235.835480 
	C142.987686,245.974640 145.697174,256.041595 148.982239,265.850006 
	C151.854004,274.424316 155.849731,282.631104 159.553925,290.908508 
	C160.129898,292.195557 161.801025,292.992584 163.007156,294.011169 
	C163.007156,294.011169 162.978043,294.041565 162.984695,294.798981 
	C163.696594,295.842285 164.408478,296.885620 165.035904,297.961548 
	C165.035904,297.961548 165.066360,297.876282 165.162613,298.326752 
M115.027679,1049.143188 
	C114.510056,1047.752686 114.092773,1046.314697 113.459389,1044.979126 
	C106.616554,1030.550293 99.484825,1016.252319 92.925781,1001.696228 
	C79.741737,972.437683 69.153526,942.189453 61.046295,911.176270 
	C55.317905,889.263062 50.717339,867.034424 46.269810,844.815186 
	C43.809189,832.522217 42.724499,819.955383 40.957020,807.520874 
	C40.660698,805.436157 40.045074,803.396912 39.576984,801.336609 
	C39.125927,801.412048 38.674866,801.487488 38.223804,801.562927 
	C38.223804,803.806396 37.948151,806.090332 38.271034,808.286316 
	C39.751762,818.357544 41.355251,828.411499 43.000874,838.457458 
	C44.565834,848.011047 45.877617,857.625793 47.941006,867.073792 
	C51.682907,884.207336 55.720242,901.282349 60.001297,918.289429 
	C61.918179,925.904541 64.577713,933.346313 67.152473,940.779419 
	C72.761116,956.970947 78.164780,973.248657 84.356079,989.218262 
	C89.008553,1001.218567 94.520958,1012.907288 100.091148,1024.523438 
	C104.723564,1034.183960 109.997520,1043.537109 115.278221,1053.664795 
	C116.367310,1055.432739 117.456406,1057.200562 118.545494,1058.968506 
	C119.068825,1058.628784 119.592148,1058.289062 120.115479,1057.949463 
	C118.423050,1055.261719 116.730621,1052.574097 115.027679,1049.143188 
M119.616417,1062.140381 
	C119.748718,1062.411499 119.881027,1062.682495 120.572273,1063.374756 
	C121.542938,1065.282104 122.376221,1067.275146 123.505699,1069.083252 
	C134.105148,1086.051758 144.449997,1103.191040 155.500443,1119.861938 
	C162.622391,1130.606323 170.637558,1140.777344 178.558151,1150.967773 
	C184.961060,1159.205566 191.578049,1167.305420 198.531937,1175.080200 
	C210.354355,1188.298218 222.013870,1201.725342 234.664948,1214.122559 
	C249.923447,1229.074707 266.074280,1243.123047 282.001923,1257.380493 
	C285.649170,1260.645264 289.962494,1263.166016 294.087219,1266.700806 
	C298.587006,1270.306152 302.925232,1274.138794 307.616333,1277.475220 
	C322.973206,1288.397583 338.188538,1299.554565 353.977783,1309.822388 
	C367.260223,1318.460083 381.114197,1326.261475 395.000793,1333.914673 
	C407.157776,1340.614624 419.475342,1347.126099 432.148773,1352.760864 
	C449.273529,1360.374756 466.582855,1367.697876 484.225403,1373.989014 
	C503.088226,1380.715210 522.363037,1386.326904 541.592346,1391.967163 
	C551.178894,1394.778931 561.042542,1396.673584 570.822083,1398.792603 
	C582.370178,1401.295044 593.909241,1403.906738 605.551147,1405.890137 
	C617.535034,1407.932007 629.614868,1409.477051 641.695801,1410.863892 
	C653.000122,1412.161621 664.380066,1413.996094 675.692932,1413.784180 
	C702.926697,1413.274536 730.148987,1415.505615 757.438843,1412.389526 
	C772.638489,1410.654175 787.880920,1409.359985 803.097473,1407.411255 
	C816.667786,1405.673462 830.221680,1404.324463 843.558655,1401.118164 
	C856.471924,1398.013550 869.519165,1395.457031 882.401001,1392.234131 
	C890.336487,1390.248413 898.067749,1387.449951 905.898926,1385.042969 
	C915.813171,1381.995728 925.941711,1379.515259 935.609680,1375.825806 
	C952.975586,1369.198364 970.421997,1362.597778 987.185608,1354.621460 
	C1009.249512,1344.123169 1031.070435,1332.979980 1052.286499,1320.871094 
	C1074.122681,1308.407959 1095.273071,1294.675781 1114.801392,1278.702515 
	C1134.285889,1262.764893 1154.275146,1247.347900 1172.750977,1230.302124 
	C1189.914429,1214.467407 1205.692749,1197.078247 1221.504028,1179.844116 
	C1242.370361,1157.099976 1260.847900,1132.415527 1277.760864,1106.617065 
	C1287.266968,1092.116455 1296.302002,1077.285889 1305.014160,1062.293091 
	C1311.487915,1051.152344 1317.286133,1039.603394 1323.023926,1028.056641 
	C1326.081543,1021.903564 1328.372681,1015.369568 1331.637573,1008.671692 
	C1334.037109,1003.452332 1336.865112,998.383240 1338.758789,992.986328 
	C1345.421631,973.997009 1352.063354,954.989868 1358.132935,935.805908 
	C1363.039429,920.298035 1367.517456,904.626770 1371.437622,888.842224 
	C1375.405640,872.864075 1378.879395,856.733521 1381.773560,840.527527 
	C1384.119019,827.392700 1385.647339,814.080750 1386.877075,800.786133 
	C1388.293823,785.470581 1389.760498,770.090027 1389.803955,754.733704 
	C1389.866089,732.828430 1388.653564,710.919617 1387.997192,688.151733 
	C1387.000366,678.289246 1386.087646,668.417419 1384.987183,658.566528 
	C1383.318970,643.631470 1382.164917,628.599365 1379.605347,613.813965 
	C1376.760376,597.380493 1373.089966,581.044739 1368.856567,564.908447 
	C1363.774292,545.536011 1358.352905,526.202881 1351.901123,507.253540 
	C1345.755615,489.203644 1338.521484,471.485657 1330.970093,453.964813 
	C1324.484741,438.917297 1316.916626,424.334015 1309.724487,409.595612 
	C1308.464233,407.012939 1306.696533,404.677856 1305.163208,402.228424 
	C1304.785767,404.150970 1305.323730,405.600159 1306.007935,406.976654 
	C1311.014526,417.049255 1316.520386,426.904022 1320.978149,437.212708 
	C1330.058350,458.210510 1338.979858,479.296295 1347.184937,500.646332 
	C1352.457153,514.365051 1356.710205,528.512817 1360.738159,542.662354 
	C1365.220581,558.408203 1369.546509,574.248840 1372.806152,590.278992 
	C1376.293945,607.430664 1378.788940,624.807312 1381.103882,642.167480 
	C1383.178833,657.727661 1384.420166,673.399048 1386.042358,689.863953 
	C1386.691772,700.444458 1388.072388,711.041138 1387.839844,721.602234 
	C1387.339722,744.317749 1386.189819,767.024841 1384.940918,789.715332 
	C1384.332275,800.775513 1383.444214,811.875244 1381.727051,822.807007 
	C1378.880493,840.930969 1376.004761,859.109497 1371.782715,876.943420 
	C1366.366821,899.819946 1360.390381,922.630188 1353.198486,945.000549 
	C1346.452881,965.982727 1337.808716,986.354675 1329.465576,1007.443237 
	C1322.118408,1022.359558 1314.939697,1037.361694 1307.385620,1052.172607 
	C1295.129395,1076.202759 1280.479370,1098.764282 1265.130249,1120.926025 
	C1246.370483,1148.012085 1225.509399,1173.421875 1202.869019,1197.223267 
	C1185.587402,1215.391235 1166.889648,1232.257935 1148.279663,1249.104370 
	C1127.086182,1268.289551 1104.014038,1285.160767 1080.136719,1300.837402 
	C1049.940674,1320.662354 1018.487305,1338.198486 985.436707,1352.977051 
	C949.211670,1369.174927 911.868591,1382.015503 873.502930,1391.767700 
	C842.841980,1399.561646 811.755066,1405.631592 780.128418,1407.971680 
	C756.645996,1409.708984 733.111084,1410.782837 709.586792,1411.878052 
	C703.816772,1412.146729 697.988708,1411.451660 692.201294,1411.015137 
	C670.893127,1409.407959 649.440186,1408.786987 628.324585,1405.797119 
	C602.134644,1402.088745 575.948547,1397.526245 550.275085,1391.234375 
	C525.491211,1385.160400 501.021362,1377.347046 477.044983,1368.572632 
	C455.391785,1360.648315 434.393066,1350.815796 413.489532,1341.006958 
	C400.573792,1334.946289 387.941589,1328.030273 375.948242,1320.308350 
	C352.231415,1305.038452 329.057953,1288.925415 305.629089,1273.206787 
	C301.847748,1270.669800 297.907501,1268.369629 293.988037,1265.270142 
	C292.939423,1264.017578 292.030243,1262.607910 290.821198,1261.536255 
	C274.445984,1247.021729 257.695282,1232.910034 241.740723,1217.948730 
	C231.225830,1208.088379 221.480835,1197.334717 212.037048,1186.421875 
	C198.163696,1170.390381 183.830032,1154.597046 171.576324,1137.362671 
	C154.591400,1113.474121 139.371948,1088.331177 123.302292,1063.786987 
	C122.681252,1062.838501 121.082130,1062.530273 119.616417,1062.140381 
M72.019936,750.403198 
	C69.553749,610.483032 107.720413,482.539154 185.093109,366.513397 
	C181.568604,362.703125 178.116013,358.970612 174.410980,354.965179 
	C172.966721,357.013916 171.796097,358.615021 170.686432,360.257294 
	C146.096161,396.649811 125.299797,435.030975 108.356232,475.617462 
	C82.171242,538.340759 65.847183,603.465332 59.309494,671.023743 
	C54.184052,723.988342 55.541801,776.844971 63.845901,829.467957 
	C73.873924,893.015381 91.979774,954.178650 119.541328,1012.299438 
	C170.557144,1119.879639 245.060165,1207.988281 343.007935,1275.580200 
	C473.342529,1365.521606 618.048706,1402.387817 775.595581,1388.615601 
	C841.285889,1382.873413 904.414673,1366.009766 964.965942,1340.135254 
	C1086.075928,1288.382935 1182.960449,1206.940430 1256.518188,1098.046143 
	C1321.887085,1001.274475 1357.828857,894.060120 1366.160278,777.606384 
	C1370.999634,709.963318 1365.243164,643.140991 1349.567017,577.212952 
	C1327.035278,482.453430 1285.469971,396.722809 1225.322998,320.220001 
	C1152.613037,227.737900 1061.703857,159.068481 952.421631,115.202904 
	C888.554504,89.566818 822.097717,75.182320 753.390991,70.823235 
	C698.538269,67.343117 644.184631,70.991554 590.253784,81.150017 
	C514.742371,95.373398 443.913818,122.005844 378.233917,162.058838 
	C375.721375,163.591019 373.247223,165.186127 370.052887,167.193207 
	C374.805145,169.899292 378.686371,172.422546 382.852661,174.319809 
	C384.408234,175.028198 386.973877,174.910370 388.490265,174.086197 
	C397.996368,168.919373 407.176666,163.142273 416.756073,158.123016 
	C499.262848,114.892479 587.138367,91.230484 680.084229,86.034439 
	C733.118958,83.069603 785.553101,87.369743 837.618164,97.727882 
	C913.770081,112.878029 984.631287,141.232269 1050.158203,182.702438 
	C1147.043213,244.018112 1222.014526,325.810089 1275.897217,426.898407 
	C1315.028809,500.312195 1338.777100,578.521484 1348.291382,661.181396 
	C1354.540527,715.473328 1354.046753,769.570923 1345.736694,823.577209 
	C1334.607422,895.905029 1312.933594,964.826172 1278.822876,1029.701050 
	C1240.299072,1102.968262 1189.620239,1166.647583 1126.901611,1220.572144 
	C1022.715027,1310.150391 902.270874,1362.129761 765.216614,1374.092407 
	C699.077637,1379.865356 633.513672,1375.060425 568.725891,1359.594360 
	C452.941742,1331.954590 352.912018,1276.019043 267.810486,1193.172363 
	C210.391495,1137.274658 164.737167,1072.942871 131.389542,999.968079 
	C95.297470,920.987488 75.729996,838.081055 72.019936,750.403198 
M36.997746,782.470276 
	C37.194035,783.478027 37.390327,784.485840 37.586617,785.493591 
	C37.902267,785.384827 38.217918,785.276123 38.533569,785.167358 
	C38.162918,781.809021 37.792267,778.450684 37.421616,775.092407 
	C36.706448,775.219482 35.991283,775.346558 35.276119,775.473633 
	C35.836426,777.546936 36.396732,779.620239 36.997746,782.470276 
M37.007847,793.554932 
	C37.332676,795.031799 37.657505,796.508606 37.982330,797.985474 
	C38.550159,797.860535 39.117989,797.735596 39.685818,797.610657 
	C39.303410,794.927734 38.921001,792.244751 38.538593,789.561829 
	C38.182438,789.568787 37.826283,789.575806 37.470127,789.582825 
	C37.316273,790.631592 37.162418,791.680298 37.007847,793.554932 
M324.623749,153.610825 
	C326.156738,154.076736 327.689728,154.542633 329.222717,155.008545 
	C329.272888,154.397614 329.323029,153.786697 329.373169,153.175766 
	C327.977142,153.175766 326.581085,153.175766 324.623749,153.610825 
M36.963989,769.231079 
	C36.746887,768.299988 36.529785,767.368958 36.312683,766.437866 
	C35.819138,766.730286 35.325596,767.022766 34.832054,767.315186 
	C35.494671,768.184387 36.157291,769.053528 36.963989,769.231079 
M1301.247681,398.144165 
	C1301.874756,398.394897 1302.501709,398.645630 1303.649292,399.104462 
	C1303.154907,398.069977 1303.015259,397.607849 1302.744263,397.243500 
	C1302.007568,396.252960 1301.027344,394.345764 1301.247681,398.144165 
M342.479248,156.078598 
	C342.235352,156.223831 341.991425,156.369064 341.747528,156.514297 
	C341.999054,156.648865 342.314850,156.944901 342.485687,156.876862 
	C342.696655,156.792831 342.787109,156.406189 342.479248,156.078598 
M337.483124,156.588531 
	C337.483124,156.588531 337.416199,156.476837 337.483124,156.588531 
M1304.404419,400.482819 
	C1304.404419,400.482819 1304.521484,400.411774 1304.404419,400.482819 
z"/>
<path fill="#1B8982" opacity="1.000000" stroke="none" 
	d="
M616.886353,350.036285 
	C616.565063,349.673889 616.243774,349.311493 615.855957,348.396729 
	C615.514465,347.564423 615.239502,347.284515 614.964478,347.004608 
	C614.625549,346.632385 614.286560,346.260193 613.870483,345.342773 
	C613.528625,344.530823 613.263855,344.264130 612.999084,343.997437 
	C612.999084,343.997437 613.000000,344.000000 612.971252,343.688660 
	C612.550842,342.945923 612.159241,342.514526 611.767578,342.083160 
	C611.767578,342.083160 611.890564,342.083435 611.913452,341.755615 
	C611.202881,340.678406 610.469360,339.929016 609.735779,339.179626 
	C609.735779,339.179626 609.854858,339.117035 609.804382,338.911438 
	C609.475464,338.479492 609.196960,338.253143 608.918518,338.026794 
	C608.918518,338.026794 608.991211,338.015289 608.981628,337.678101 
	C608.266602,336.587494 607.561157,335.834137 606.855713,335.080750 
	C606.855713,335.080750 606.945679,335.045532 606.951050,334.710083 
	C606.216614,333.644165 605.476807,332.913696 604.736938,332.183258 
	C604.736938,332.183258 604.856201,332.121155 604.800171,331.912109 
	C604.453491,331.483582 604.162842,331.264130 603.872192,331.044678 
	C603.872192,331.044678 603.955627,331.042480 603.973511,330.666138 
	C604.201660,326.469086 607.049011,327.015411 609.498535,327.014526 
	C645.808289,327.001404 682.118286,327.068787 718.427429,326.920502 
	C722.909241,326.902222 724.127991,328.490875 724.074402,332.753571 
	C723.879395,348.241028 723.741089,363.737488 724.044067,379.221497 
	C724.996338,427.897095 721.659546,476.633789 726.844177,525.262695 
	C729.031128,545.775208 733.097412,565.751099 739.318359,585.339294 
	C740.078674,587.733398 741.840759,589.809326 743.138550,592.032776 
	C743.138550,592.032776 743.249268,592.202148 743.175049,592.668945 
	C743.461060,593.743896 743.821289,594.352051 744.181519,594.960205 
	C744.181519,594.960205 744.073853,594.949280 744.060913,595.266357 
	C744.463562,596.356140 744.879089,597.128845 745.294617,597.901489 
	C745.294617,597.901489 745.155762,597.918030 745.115417,598.241089 
	C745.700867,599.708313 746.326660,600.852478 746.952454,601.996582 
	C746.952454,601.996582 747.194702,602.221313 747.129333,602.786255 
	C747.520203,604.172791 747.976440,604.994446 748.432739,605.816101 
	C748.432739,605.816101 748.279785,605.857422 748.203003,606.146240 
	C748.708313,607.288879 749.290344,608.142761 749.872375,608.996643 
	C749.872375,608.996643 750.131653,609.302551 750.105713,609.841187 
	C750.420837,610.910767 750.762024,611.441711 751.103210,611.972656 
	C751.103210,611.972656 751.024536,611.971680 751.026428,612.319580 
	C751.676819,613.777039 752.325317,614.886475 752.973816,615.995972 
	C752.973816,615.995972 753.205444,616.163574 753.140015,616.701355 
	C753.703125,618.157654 754.331604,619.076172 754.960083,619.994690 
	C754.960083,619.994690 755.197632,620.161682 755.135742,620.704834 
	C755.714539,622.166748 756.355225,623.085449 756.995850,624.004211 
	C756.995850,624.004211 757.195496,624.155457 757.133362,624.694702 
	C758.100769,626.792847 759.130310,628.351746 760.159851,629.910706 
	C760.159851,629.910706 760.067871,629.946777 760.056274,630.293945 
	C760.804749,633.727844 760.685425,637.433960 765.160706,637.903320 
	C765.160706,637.903320 765.065857,637.945740 765.057251,638.278198 
	C765.769531,639.383484 766.490417,640.156311 767.211243,640.929077 
	C767.451538,641.141113 767.691772,641.353149 767.992920,642.117310 
	C768.434998,643.090698 768.816284,643.511841 769.197571,643.932983 
	C769.197571,643.932983 769.087097,643.934509 769.094299,644.224365 
	C769.548096,644.922058 769.994751,645.329834 770.441406,645.737671 
	C770.441406,645.737610 770.260315,645.842651 770.301758,646.055176 
	C770.696838,646.474304 771.050598,646.680969 771.404297,646.887634 
	C831.720825,714.282532 892.044983,781.670532 952.347168,849.078308 
	C964.121704,862.240295 976.209778,875.148560 987.462036,888.745850 
	C1016.885925,924.301819 1054.185547,947.002625 1098.793823,957.840820 
	C1121.102417,963.261047 1143.657104,967.671387 1165.950562,973.148743 
	C1174.773071,975.316406 1183.490967,978.491028 1191.736450,982.325378 
	C1224.704346,997.656189 1221.779785,1035.631226 1205.876709,1053.673340 
	C1193.959473,1067.193359 1178.889160,1075.642212 1161.474854,1078.790405 
	C1146.470581,1081.503052 1131.115967,1083.100708 1115.871216,1083.509766 
	C1066.912354,1084.822998 1017.935364,1085.660400 968.960083,1086.113892 
	C910.926941,1086.651367 858.373474,1069.590454 810.263367,1037.045898 
	C771.947876,1011.126953 733.256226,985.689575 691.487305,965.353455 
	C644.022888,942.244507 594.229675,927.514587 541.731995,921.839783 
	C507.479004,918.137146 473.171021,914.783569 439.497192,907.024414 
	C422.847595,903.187988 406.798370,897.687439 392.078735,888.990051 
	C357.275177,868.425842 339.735260,837.417114 338.085144,797.324097 
	C336.869720,767.793091 346.486389,741.008850 359.815918,715.247131 
	C370.293182,694.997864 381.594543,675.104126 390.817108,654.293518 
	C403.914612,624.739258 410.688568,593.322693 413.914886,561.168823 
	C414.013916,560.181885 414.113129,559.195007 414.213593,558.194946 
	C414.722504,557.914795 415.140320,557.483521 415.558136,557.483521 
	C437.031494,557.482727 458.580933,556.693604 479.702026,561.687805 
	C513.364807,569.647400 533.606323,594.563354 535.012329,629.185120 
	C535.752502,647.412598 532.152344,664.945801 527.156189,682.300232 
	C526.665039,684.006226 526.334290,685.758301 525.774536,688.149170 
	C564.939636,664.727295 595.578552,633.875061 619.099609,595.070801 
	C619.777893,594.468506 619.908447,594.188171 619.942383,593.862732 
	C619.942383,593.862732 619.949585,593.946960 620.274902,593.908569 
	C621.080017,592.608276 621.559814,591.346497 622.039612,590.084656 
	C622.039612,590.084656 622.000610,590.027649 622.249817,589.874695 
	C622.619568,589.401428 622.740112,589.081055 622.860657,588.760742 
	C622.860657,588.760742 622.853760,588.888062 623.164185,588.874756 
	C626.025330,584.912537 629.398987,581.265198 630.976318,576.959717 
	C636.249878,562.565125 641.525513,548.111145 645.559021,533.340942 
	C648.935181,520.977661 651.935791,508.221222 652.699280,495.494720 
	C654.369934,467.644653 653.135254,439.838898 644.419556,412.928223 
	C643.441833,409.909546 641.904907,407.071930 640.627380,404.150360 
	C640.627380,404.150360 640.760498,404.088684 640.834961,403.761993 
	C640.170410,401.659302 639.431335,399.883301 638.692261,398.107300 
	C638.692261,398.107300 638.828308,398.075165 638.877808,397.730896 
	C638.168335,395.644409 637.409424,393.902222 636.650452,392.160034 
	C636.650452,392.160034 636.775269,392.102325 636.843262,391.783691 
	C636.313416,390.310181 635.715576,389.155365 635.117676,388.000519 
	C635.117676,388.000519 634.858032,387.687408 634.907410,387.095917 
	C634.357544,385.335663 633.758301,384.166901 633.159058,382.998138 
	C633.159058,382.998138 632.887329,382.662781 632.907959,382.119934 
	C632.605042,381.054016 632.281372,380.531006 631.957764,380.007965 
	C631.957764,380.007965 632.006836,380.008301 631.979248,379.730347 
	C631.654907,378.972626 631.358215,378.492859 631.061523,378.013092 
	C631.061523,378.013092 630.815369,377.819183 630.822998,377.379730 
	C630.608093,376.638397 630.385559,376.336517 630.162964,376.034637 
	C630.162964,376.034637 629.882385,375.719147 629.901733,375.168091 
	C629.575500,374.085388 629.229797,373.553772 628.884155,373.022156 
	C628.884155,373.022156 628.962219,373.033325 628.947266,372.754364 
	C628.595032,371.989258 628.257751,371.503113 627.920410,371.016968 
	C627.920410,371.016968 627.991638,371.017700 627.966003,370.738770 
	C627.616272,369.974762 627.292175,369.489685 626.968079,369.004578 
	C626.968079,369.004578 627.007080,369.007019 626.994751,368.664795 
	C626.548889,367.584747 626.115356,366.846924 625.681885,366.109070 
	C625.681885,366.109070 625.832886,366.096954 625.873535,365.766174 
	C624.702881,360.659424 623.910706,355.639923 618.771729,353.146881 
	C618.771729,353.146881 618.868896,353.091461 618.902222,352.767822 
	C618.252441,351.641571 617.569397,350.838928 616.886353,350.036285 
z"/>
<path fill="#1C8781" opacity="1.000000" stroke="none" 
	d="
M159.142181,13.253248 
	C159.561859,13.108606 159.981552,12.963964 160.872284,13.129556 
	C163.853088,16.679585 166.362839,19.919380 168.872589,23.159176 
	C168.872589,23.159174 168.934799,23.033104 168.970490,23.408749 
	C172.668076,28.526348 176.329987,33.268303 179.991898,38.010258 
	C179.991898,38.010258 180.000000,38.000000 180.074066,38.334625 
	C182.760757,41.785542 185.373352,44.901833 187.985947,48.018127 
	C187.985947,48.018127 188.000610,48.000408 188.034775,48.274513 
	C188.349655,48.754921 188.630371,48.961224 188.911087,49.167526 
	C188.911087,49.167522 188.919983,49.071903 188.967438,49.407372 
	C190.134659,50.981010 191.254440,52.219181 192.374237,53.457352 
	C192.374222,53.457355 192.478561,53.521187 192.615295,53.868973 
	C199.721329,61.927902 206.690613,69.639053 213.659912,77.350204 
	C213.659912,77.350204 213.988434,77.009247 213.945679,77.477440 
	C241.169052,105.952232 270.845978,131.156418 302.608307,153.898956 
	C349.257507,187.300812 398.643311,216.329788 448.410248,244.733154 
	C480.545135,263.073425 512.398682,281.819183 540.993958,305.551056 
	C562.827637,323.671356 582.110413,343.984039 596.059998,368.938629 
	C619.077637,410.114960 627.528503,454.182526 622.143005,500.962006 
	C616.802124,547.354126 597.814392,587.425964 566.067383,621.546265 
	C564.981201,622.713684 563.706909,623.706116 562.033142,625.221008 
	C561.648682,622.364197 561.363159,620.244019 561.078003,618.123779 
	C556.515076,584.191956 539.713501,558.709778 508.862457,543.168030 
	C487.823029,532.569092 465.115204,530.093506 441.909485,529.650269 
	C419.776001,529.227478 397.488495,529.443665 375.564240,526.865662 
	C305.268524,518.599915 254.823120,482.103821 225.110428,417.541901 
	C224.606842,416.447662 224.379745,415.226166 223.937759,413.783875 
	C224.977371,413.927368 225.485947,413.901978 225.918716,414.070862 
	C268.048431,430.510101 311.899231,438.680969 356.905243,441.090332 
	C391.840118,442.960510 426.059540,448.479584 459.195526,460.005249 
	C462.436676,461.132629 465.811798,461.875000 469.172974,462.850769 
	C469.221222,462.905426 469.075989,463.039703 469.075989,463.039703 
	C469.075989,463.039703 469.167419,462.895538 468.908081,462.682190 
	C462.597565,457.522461 456.860626,452.117737 450.437286,447.714264 
	C429.794006,433.562256 406.370819,425.921753 382.368317,419.950684 
	C354.930298,413.124969 327.169037,407.484314 299.978729,399.804535 
	C260.718781,388.715729 225.988968,369.138611 196.919281,340.112183 
	C184.823166,328.034058 175.064636,314.184631 166.105347,299.719696 
	C166.105347,299.719696 166.083313,299.290405 165.938507,298.884399 
	C165.674835,298.128387 165.432388,297.927704 165.066360,297.876282 
	C165.066360,297.876282 165.035904,297.961548 165.043030,297.619446 
	C164.359467,296.198761 163.668747,295.120148 162.978043,294.041565 
	C162.978043,294.041565 163.007156,294.011169 162.947479,293.657227 
	C147.777039,264.490631 140.382584,233.625656 138.738678,201.572998 
	C139.317123,201.907730 139.578293,201.985001 139.906006,202.338989 
	C140.273285,202.824997 140.574051,203.034286 140.868408,203.182556 
	C140.862000,203.121552 140.756836,203.184738 140.868042,203.501358 
	C143.928497,206.622208 146.877762,209.426437 149.879608,212.170685 
	C149.932190,212.110672 149.787033,212.176941 149.922958,212.484512 
	C159.302338,220.416183 168.410904,228.211121 177.812988,235.634293 
	C215.021622,265.011475 257.276794,285.291656 300.854370,302.991394 
	C351.857880,323.707306 403.209106,343.637421 447.884247,377.473755 
	C450.191223,379.401031 452.324615,381.037109 454.457977,382.673157 
	C454.749115,382.411804 455.040253,382.150452 455.331390,381.889099 
	C453.620056,379.482086 451.908752,377.075043 450.123383,374.413361 
	C449.709442,373.766602 449.369568,373.374481 448.989197,372.708984 
	C448.675079,372.205109 448.401428,371.974640 448.042755,371.461548 
	C447.323792,370.443024 446.689819,369.707153 446.011719,368.707886 
	C445.695465,368.234863 445.423279,368.025208 445.107086,367.874237 
	C445.063049,367.932953 445.192535,367.863800 445.125732,367.585632 
	C444.777222,367.064148 444.495483,366.820831 444.094940,366.270935 
	C430.371094,348.171967 412.684265,334.936310 393.757538,323.755280 
	C368.985474,309.121155 343.496521,295.655518 317.953979,282.383789 
	C294.153900,270.017395 270.644287,257.157532 248.892746,241.498215 
	C238.309982,233.879486 228.885864,224.550537 219.436142,215.476257 
	C179.297455,176.932190 158.342850,129.312592 153.979111,74.226074 
	C152.353821,53.709068 154.135651,33.299477 159.142181,13.253248 
z"/>
<path fill="#248681" opacity="1.000000" stroke="none" 
	d="
M72.036194,750.887939 
	C75.729996,838.081055 95.297470,920.987488 131.389542,999.968079 
	C164.737167,1072.942871 210.391495,1137.274658 267.810486,1193.172363 
	C352.912018,1276.019043 452.941742,1331.954590 568.725891,1359.594360 
	C633.513672,1375.060425 699.077637,1379.865356 765.216614,1374.092407 
	C902.270874,1362.129761 1022.715027,1310.150391 1126.901611,1220.572144 
	C1189.620239,1166.647583 1240.299072,1102.968262 1278.822876,1029.701050 
	C1312.933594,964.826172 1334.607422,895.905029 1345.736694,823.577209 
	C1354.046753,769.570923 1354.540527,715.473328 1348.291382,661.181396 
	C1338.777100,578.521484 1315.028809,500.312195 1275.897217,426.898407 
	C1222.014526,325.810089 1147.043213,244.018112 1050.158203,182.702438 
	C984.631287,141.232269 913.770081,112.878029 837.618164,97.727882 
	C785.553101,87.369743 733.118958,83.069603 680.084229,86.034439 
	C587.138367,91.230484 499.262848,114.892479 416.756073,158.123016 
	C407.176666,163.142273 397.996368,168.919373 388.490265,174.086197 
	C386.973877,174.910370 384.408234,175.028198 382.852661,174.319809 
	C378.686371,172.422546 374.805145,169.899292 370.052887,167.193207 
	C373.247223,165.186127 375.721375,163.591019 378.233917,162.058838 
	C443.913818,122.005844 514.742371,95.373398 590.253784,81.150017 
	C644.184631,70.991554 698.538269,67.343117 753.390991,70.823235 
	C822.097717,75.182320 888.554504,89.566818 952.421631,115.202904 
	C1061.703857,159.068481 1152.613037,227.737900 1225.322998,320.220001 
	C1285.469971,396.722809 1327.035278,482.453430 1349.567017,577.212952 
	C1365.243164,643.140991 1370.999634,709.963318 1366.160278,777.606384 
	C1357.828857,894.060120 1321.887085,1001.274475 1256.518188,1098.046143 
	C1182.960449,1206.940430 1086.075928,1288.382935 964.965942,1340.135254 
	C904.414673,1366.009766 841.285889,1382.873413 775.595581,1388.615601 
	C618.048706,1402.387817 473.342529,1365.521606 343.007935,1275.580200 
	C245.060165,1207.988281 170.557144,1119.879639 119.541328,1012.299438 
	C91.979774,954.178650 73.873924,893.015381 63.845901,829.467957 
	C55.541801,776.844971 54.184052,723.988342 59.309494,671.023743 
	C65.847183,603.465332 82.171242,538.340759 108.356232,475.617462 
	C125.299797,435.030975 146.096161,396.649811 170.686432,360.257294 
	C171.796097,358.615021 172.966721,357.013916 174.410980,354.965179 
	C178.116013,358.970612 181.568604,362.703125 185.093109,366.513397 
	C107.720413,482.539154 69.553749,610.483032 72.036194,750.887939 
z"/>
<path fill="#FAFDF7" opacity="1.000000" stroke="none" 
	d="
M139.839478,202.062286 
	C139.578293,201.985001 139.317123,201.907730 138.553513,201.623489 
	C137.367599,201.611633 136.684097,201.806732 136.000610,202.001831 
	C131.968491,190.936523 134.493774,179.140259 132.253647,167.820755 
	C131.553970,164.285187 133.906570,160.254425 133.893188,156.453751 
	C133.853226,145.113495 132.791397,133.757767 133.149734,122.440399 
	C133.520493,110.730820 135.031464,98.989639 140.467636,88.338104 
	C142.184341,84.974380 145.247452,82.297821 147.971375,78.968163 
	C148.363159,79.128532 149.354935,79.534492 150.673828,80.219521 
	C151.001450,80.665588 151.001953,80.832581 151.043091,81.319801 
	C151.720154,82.092743 152.356552,82.545456 152.994720,83.448639 
	C154.184296,96.849213 155.976212,109.679840 160.826080,121.869263 
	C167.092621,137.619293 172.436005,153.833694 179.966415,168.957062 
	C187.804764,184.698883 199.414185,198.200439 211.587280,210.879745 
	C220.770584,220.444946 230.976288,229.023132 240.605911,238.168060 
	C244.286911,241.663773 245.003799,248.142700 242.312805,251.151352 
	C238.584045,255.320282 234.612808,259.281036 231.031677,263.569977 
	C228.960373,266.050720 226.767670,265.964264 224.490326,264.605225 
	C217.822693,260.626190 210.950867,256.888885 204.723755,252.291931 
	C189.285965,240.895538 174.202820,229.019836 158.875137,217.472168 
	C156.094360,215.377151 152.828796,213.925568 149.787033,212.176941 
	C149.787033,212.176941 149.932190,212.110672 149.908905,211.807755 
	C146.842697,208.731461 143.799774,205.958099 140.756836,203.184738 
	C140.756836,203.184738 140.862000,203.121552 140.797974,202.907974 
	C140.435776,202.483688 140.137634,202.272995 139.839478,202.062286 
z"/>
<path fill="#F8FDFD" opacity="1.000000" stroke="none" 
	d="
M149.922958,212.484512 
	C152.828796,213.925568 156.094360,215.377151 158.875137,217.472168 
	C174.202820,229.019836 189.285965,240.895538 204.723755,252.291931 
	C210.950867,256.888885 217.822693,260.626190 224.490326,264.605225 
	C226.767670,265.964264 228.960373,266.050720 231.031677,263.569977 
	C234.612808,259.281036 238.584045,255.320282 242.312805,251.151352 
	C245.003799,248.142700 244.286911,241.663773 240.605911,238.168060 
	C230.976288,229.023132 220.770584,220.444946 211.587280,210.879745 
	C199.414185,198.200439 187.804764,184.698883 179.966415,168.957062 
	C172.436005,153.833694 167.092621,137.619293 160.826080,121.869263 
	C155.976212,109.679840 154.184296,96.849213 152.954987,83.128448 
	C152.276459,81.905052 151.639450,81.452316 151.002441,80.999573 
	C151.001953,80.832581 151.001450,80.665588 151.000153,80.248077 
	C150.999390,76.173012 150.793610,72.335365 151.035995,68.526237 
	C151.948349,54.188843 152.921082,39.853870 154.068878,25.533836 
	C154.365417,21.834282 155.254883,18.160084 156.169342,14.549554 
	C156.369949,13.757490 157.838043,13.286440 158.932312,12.960402 
	C154.135651,33.299477 152.353821,53.709068 153.979111,74.226074 
	C158.342850,129.312592 179.297455,176.932190 219.436142,215.476257 
	C228.885864,224.550537 238.309982,233.879486 248.892746,241.498215 
	C270.644287,257.157532 294.153900,270.017395 317.953979,282.383789 
	C343.496521,295.655518 368.985474,309.121155 393.757538,323.755280 
	C412.684265,334.936310 430.371094,348.171967 444.121552,366.570374 
	C444.575470,367.405579 444.884003,367.634705 445.192535,367.863831 
	C445.192535,367.863800 445.063049,367.932953 445.149658,368.137299 
	C445.509460,368.551514 445.782654,368.761383 446.055847,368.971252 
	C446.689819,369.707153 447.323792,370.443024 448.082031,371.734802 
	C448.480774,372.521240 448.755219,372.751801 449.029663,372.982391 
	C449.369568,373.374481 449.709442,373.766602 450.028687,374.792114 
	C449.242249,376.011200 448.476440,376.596832 447.710632,377.182495 
	C403.209106,343.637421 351.857880,323.707306 300.854370,302.991394 
	C257.276794,285.291656 215.021622,265.011475 177.812988,235.634293 
	C168.410904,228.211121 159.302338,220.416183 149.922958,212.484512 
z"/>
<path fill="#F8FDFD" opacity="1.000000" stroke="none" 
	d="
M469.124725,462.796082 
	C465.811798,461.875000 462.436676,461.132629 459.195526,460.005249 
	C426.059540,448.479584 391.840118,442.960510 356.905243,441.090332 
	C311.899231,438.680969 268.048431,430.510101 225.918716,414.070862 
	C225.485947,413.901978 224.977371,413.927368 223.937759,413.783875 
	C224.379745,415.226166 224.606842,416.447662 225.110428,417.541901 
	C254.823120,482.103821 305.268524,518.599915 375.564240,526.865662 
	C397.488495,529.443665 419.776001,529.227478 441.909485,529.650269 
	C465.115204,530.093506 487.823029,532.569092 508.862457,543.168030 
	C539.713501,558.709778 556.515076,584.191956 561.078003,618.123779 
	C561.363159,620.244019 561.648682,622.364197 562.033142,625.221008 
	C563.706909,623.706116 564.981201,622.713684 566.067383,621.546265 
	C597.814392,587.425964 616.802124,547.354126 622.143005,500.962006 
	C627.528503,454.182526 619.077637,410.114960 596.059998,368.938629 
	C582.110413,343.984039 562.827637,323.671356 540.993958,305.551056 
	C512.398682,281.819183 480.545135,263.073425 448.410248,244.733154 
	C398.643311,216.329788 349.257507,187.300812 302.608307,153.898956 
	C270.845978,131.156418 241.169052,105.952232 213.776337,77.642899 
	C215.050308,78.010025 216.695694,78.402695 217.814743,79.391228 
	C235.082504,94.645111 251.995285,110.316116 269.599762,125.168068 
	C280.974548,134.764343 293.354492,143.167038 305.249146,152.150757 
	C308.184570,154.367767 310.502045,154.880692 313.336395,151.579178 
	C314.225006,150.544113 317.447723,151.512878 319.602051,151.564453 
	C319.539734,152.195374 319.477417,152.826309 319.415070,153.457230 
	C318.397156,153.347916 317.062897,152.788605 316.433075,153.231354 
	C315.404938,153.954102 314.353668,155.287170 314.250214,156.446472 
	C314.185760,157.168365 315.748718,158.564835 316.752686,158.755371 
	C320.005920,159.372787 323.334656,159.809937 326.641357,159.861282 
	C329.423676,159.904449 332.210938,159.248459 335.006073,159.032028 
	C336.127991,158.945145 337.276764,159.205719 339.398773,159.396988 
	C338.425659,161.051010 337.992249,162.429398 337.066498,163.257141 
	C331.016510,168.666656 331.148346,170.642426 337.781067,174.912918 
	C343.899933,178.852554 349.809326,183.124893 356.001831,186.940933 
	C362.616425,191.017105 369.546692,194.580154 376.170624,198.642120 
	C383.735443,203.281067 391.040009,208.344086 398.598541,212.993729 
	C404.234161,216.460480 410.132477,219.497070 415.845490,222.841843 
	C427.232971,229.508820 438.490906,236.401245 449.962860,242.918076 
	C457.382477,247.132919 465.175293,250.687805 472.631378,254.842651 
	C477.345490,257.469543 481.774323,260.615997 486.284454,263.599976 
	C500.789429,273.196808 515.579285,282.403137 529.653564,292.596375 
	C538.615173,299.086761 546.582092,306.971405 554.853882,314.388367 
	C567.477722,325.707703 578.488953,338.343109 588.410400,352.211029 
	C598.928406,366.912872 605.968018,383.123199 612.637451,399.594788 
	C618.211670,413.361450 620.828064,427.889099 623.275635,442.569000 
	C626.542358,462.161682 624.209717,481.703003 624.809509,501.246613 
	C624.975159,506.642700 622.733398,512.091492 621.783630,517.548645 
	C620.742737,523.529358 619.580872,529.520630 619.096497,535.557434 
	C618.625549,541.426575 618.462463,547.176025 613.614746,551.481689 
	C613.058594,551.975708 612.769592,552.942871 612.654968,553.733887 
	C611.815369,559.526062 609.007141,564.153870 605.802551,569.095947 
	C599.778992,578.385559 595.878174,589.038086 590.005737,598.443970 
	C585.989746,604.876465 580.226746,610.246521 575.052246,615.915833 
	C572.372620,618.851624 569.425171,621.598450 566.295654,624.042603 
	C564.912537,625.122864 562.641724,625.885071 561.034424,625.548218 
	C560.091614,625.350708 559.500061,622.754333 559.029785,621.154907 
	C557.400574,615.613403 555.892944,610.036133 554.340698,604.472046 
	C553.851074,602.716797 553.236816,600.984680 552.899841,599.200378 
	C549.807983,582.830933 541.718994,569.815125 527.870117,560.240662 
	C520.824341,555.369568 515.344116,548.279114 506.911804,545.330994 
	C497.943329,542.195435 489.166443,538.168701 479.951172,536.152588 
	C460.091431,531.807739 439.798859,531.679993 419.536072,531.982849 
	C411.957947,532.096130 404.361694,532.297302 396.801239,531.914307 
	C389.725189,531.555847 382.681610,530.512634 375.631500,529.703064 
	C371.322113,529.208191 366.975525,528.836792 362.737976,527.962463 
	C355.894714,526.550415 349.151428,524.657776 342.316437,523.200073 
	C339.647278,522.630859 336.771729,522.187561 334.117920,522.571045 
	C329.259399,523.273010 325.425842,523.246460 321.789093,518.729675 
	C319.135071,515.433350 314.559052,513.608521 310.695343,511.377991 
	C302.690948,506.756958 294.844360,501.736115 286.444153,497.969696 
	C280.376892,495.249298 276.354401,491.094421 272.281921,486.160889 
	C267.278442,480.099426 260.991821,475.116608 255.675003,469.288788 
	C250.381546,463.486603 245.375412,457.385437 240.663116,451.100555 
	C236.228745,445.186401 232.824905,438.453552 228.076004,432.834473 
	C223.497940,427.417511 223.028870,421.018646 222.304688,414.796631 
	C221.847076,410.864929 226.066635,412.077240 228.475784,412.139099 
	C231.981598,412.229218 235.572342,412.347198 238.945786,413.183655 
	C241.572372,413.834930 244.045807,415.410889 246.364212,416.918915 
	C249.163116,418.739441 251.528183,420.692169 255.417740,419.288849 
	C257.213501,418.640961 259.864166,419.670746 261.896698,420.502899 
	C267.584137,422.831299 272.957733,426.119263 278.806641,427.819794 
	C290.782776,431.301819 303.086029,432.355774 315.650391,432.295502 
	C322.318298,432.263489 329.573364,432.057770 335.873657,436.219757 
	C338.039429,437.650482 341.259003,437.726318 344.035034,437.949341 
	C353.438385,438.704651 362.854980,439.313568 372.273712,439.853180 
	C379.909088,440.290649 387.553253,440.781036 395.196289,440.832336 
	C407.845978,440.917297 419.180847,445.909943 430.864807,449.731262 
	C437.705383,451.968506 444.682129,453.801514 451.644928,455.636810 
	C452.466125,455.853241 453.587677,454.930298 454.570007,454.535522 
	C454.134338,453.739227 453.902832,452.567108 453.232422,452.202850 
	C442.923798,446.602142 432.553162,441.115723 422.207489,435.582947 
	C416.675568,432.624542 410.856354,431.261566 404.547302,431.918976 
	C403.339081,432.044891 401.965729,431.390320 400.786316,430.842377 
	C396.807281,428.993805 392.974091,426.798767 388.909851,425.174896 
	C384.511200,423.417419 380.010101,421.666687 375.387482,420.768982 
	C364.309235,418.617554 353.585266,414.344513 341.754181,416.586212 
	C337.041260,417.479187 331.805298,415.611816 326.399475,414.635803 
	C324.994324,413.179962 323.997162,412.089355 323.000000,410.998779 
	C310.618042,404.015228 296.784760,401.096130 283.162750,398.492615 
	C277.418762,397.394806 272.806366,396.803345 267.946472,392.862213 
	C261.492798,387.628479 253.482574,384.334076 246.220337,380.071472 
	C239.660706,376.221222 233.219620,372.169342 226.694229,368.259888 
	C225.740570,367.688477 224.550781,367.519989 223.571030,366.981659 
	C221.055649,365.599670 218.472778,364.289032 216.143234,362.631714 
	C212.153946,359.793549 208.101898,356.967529 204.518555,353.657501 
	C201.340118,350.721497 198.689911,347.194275 195.935135,343.822906 
	C189.761322,336.267303 183.716522,328.605652 177.483841,321.099548 
	C176.631485,320.073029 175.005112,319.689209 173.367325,318.612183 
	C172.328323,315.810913 171.659103,313.405243 170.989868,310.999603 
	C169.342285,307.506805 167.694702,304.014008 166.076233,300.120453 
	C175.064636,314.184631 184.823166,328.034058 196.919281,340.112183 
	C225.988968,369.138611 260.718781,388.715729 299.978729,399.804535 
	C327.169037,407.484314 354.930298,413.124969 382.368317,419.950684 
	C406.370819,425.921753 429.794006,433.562256 450.437286,447.714264 
	C456.860626,452.117737 462.597565,457.522461 468.881165,462.664276 
	C469.113617,462.859741 469.124725,462.796082 469.124725,462.796082 
z"/>
<path fill="#E0E0DC" opacity="1.000000" stroke="none" 
	d="
M294.040710,1265.959961 
	C297.907501,1268.369629 301.847748,1270.669800 305.629089,1273.206787 
	C329.057953,1288.925415 352.231415,1305.038452 375.948242,1320.308350 
	C387.941589,1328.030273 400.573792,1334.946289 413.489532,1341.006958 
	C434.393066,1350.815796 455.391785,1360.648315 477.044983,1368.572632 
	C501.021362,1377.347046 525.491211,1385.160400 550.275085,1391.234375 
	C575.948547,1397.526245 602.134644,1402.088745 628.324585,1405.797119 
	C649.440186,1408.786987 670.893127,1409.407959 692.201294,1411.015137 
	C697.988708,1411.451660 703.816772,1412.146729 709.586792,1411.878052 
	C733.111084,1410.782837 756.645996,1409.708984 780.128418,1407.971680 
	C811.755066,1405.631592 842.841980,1399.561646 873.502930,1391.767700 
	C911.868591,1382.015503 949.211670,1369.174927 985.436707,1352.977051 
	C1018.487305,1338.198486 1049.940674,1320.662354 1080.136719,1300.837402 
	C1104.014038,1285.160767 1127.086182,1268.289551 1148.279663,1249.104370 
	C1166.889648,1232.257935 1185.587402,1215.391235 1202.869019,1197.223267 
	C1225.509399,1173.421875 1246.370483,1148.012085 1265.130249,1120.926025 
	C1280.479370,1098.764282 1295.129395,1076.202759 1307.385620,1052.172607 
	C1314.939697,1037.361694 1322.118408,1022.359558 1329.838867,1007.480591 
	C1330.478149,1008.014465 1330.743896,1008.510925 1331.009766,1009.007446 
	C1328.372681,1015.369568 1326.081543,1021.903564 1323.023926,1028.056641 
	C1317.286133,1039.603394 1311.487915,1051.152344 1305.014160,1062.293091 
	C1296.302002,1077.285889 1287.266968,1092.116455 1277.760864,1106.617065 
	C1260.847900,1132.415527 1242.370361,1157.099976 1221.504028,1179.844116 
	C1205.692749,1197.078247 1189.914429,1214.467407 1172.750977,1230.302124 
	C1154.275146,1247.347900 1134.285889,1262.764893 1114.801392,1278.702515 
	C1095.273071,1294.675781 1074.122681,1308.407959 1052.286499,1320.871094 
	C1031.070435,1332.979980 1009.249512,1344.123169 987.185608,1354.621460 
	C970.421997,1362.597778 952.975586,1369.198364 935.609680,1375.825806 
	C925.941711,1379.515259 915.813171,1381.995728 905.898926,1385.042969 
	C898.067749,1387.449951 890.336487,1390.248413 882.401001,1392.234131 
	C869.519165,1395.457031 856.471924,1398.013550 843.558655,1401.118164 
	C830.221680,1404.324463 816.667786,1405.673462 803.097473,1407.411255 
	C787.880920,1409.359985 772.638489,1410.654175 757.438843,1412.389526 
	C730.148987,1415.505615 702.926697,1413.274536 675.692932,1413.784180 
	C664.380066,1413.996094 653.000122,1412.161621 641.695801,1410.863892 
	C629.614868,1409.477051 617.535034,1407.932007 605.551147,1405.890137 
	C593.909241,1403.906738 582.370178,1401.295044 570.822083,1398.792603 
	C561.042542,1396.673584 551.178894,1394.778931 541.592346,1391.967163 
	C522.363037,1386.326904 503.088226,1380.715210 484.225403,1373.989014 
	C466.582855,1367.697876 449.273529,1360.374756 432.148773,1352.760864 
	C419.475342,1347.126099 407.157776,1340.614624 395.000793,1333.914673 
	C381.114197,1326.261475 367.260223,1318.460083 353.977783,1309.822388 
	C338.188538,1299.554565 322.973206,1288.397583 307.616333,1277.475220 
	C302.925232,1274.138794 298.587006,1270.306152 294.046387,1266.347656 
	C294.005554,1265.994507 294.040710,1265.959961 294.040710,1265.959961 
z"/>
<path fill="#F1F1ED" opacity="1.000000" stroke="none" 
	d="
M112.006851,418.000946 
	C107.971077,427.071136 103.670578,436.034302 99.952324,445.232819 
	C91.069206,467.208527 82.021179,489.134644 73.888000,511.390747 
	C67.987335,527.537659 62.721607,543.997131 58.491253,560.652222 
	C53.858196,578.892700 50.296200,597.441284 47.087208,615.997375 
	C43.881210,634.536194 41.605438,653.239136 39.106724,671.894897 
	C38.404911,677.134705 38.136150,682.457947 38.042694,687.749512 
	C37.622887,711.520691 37.337776,735.294312 36.627396,759.534302 
	C35.508812,760.006775 34.766907,760.012085 34.024998,760.017334 
	C34.015144,756.717346 33.951427,753.416565 34.004276,750.117554 
	C34.321281,730.329346 34.155586,710.515137 35.175240,690.762512 
	C35.879765,677.114441 38.286861,663.557495 39.834206,649.948608 
	C40.972157,639.940308 41.798702,629.894714 43.055595,619.902466 
	C43.816780,613.851074 44.999092,607.841614 46.236782,601.864014 
	C47.672310,594.930786 49.274300,588.027832 50.987320,581.157410 
	C53.446358,571.294861 55.857487,561.412109 58.671021,551.648010 
	C64.017143,533.094910 69.349915,514.528381 75.262161,496.152100 
	C78.079979,487.393890 82.166107,479.038910 85.762985,470.537384 
	C90.515778,459.303741 95.150528,448.013214 100.223846,436.924591 
	C103.593796,429.558990 107.642197,422.503815 111.694427,415.527344 
	C112.003578,416.497009 112.005211,417.248993 112.006851,418.000946 
z"/>
<path fill="#EAEAE6" opacity="1.000000" stroke="none" 
	d="
M1331.323730,1008.839600 
	C1330.743896,1008.510925 1330.478149,1008.014465 1330.106201,1007.256531 
	C1337.808716,986.354675 1346.452881,965.982727 1353.198486,945.000549 
	C1360.390381,922.630188 1366.366821,899.819946 1371.782715,876.943420 
	C1376.004761,859.109497 1378.880493,840.930969 1381.727051,822.807007 
	C1383.444214,811.875244 1384.332275,800.775513 1384.940918,789.715332 
	C1386.189819,767.024841 1387.339722,744.317749 1387.839844,721.602234 
	C1388.072388,711.041138 1386.691772,700.444458 1386.361572,689.436890 
	C1387.115601,689.010620 1387.550415,689.011414 1387.985352,689.012207 
	C1388.653564,710.919617 1389.866089,732.828430 1389.803955,754.733704 
	C1389.760498,770.090027 1388.293823,785.470581 1386.877075,800.786133 
	C1385.647339,814.080750 1384.119019,827.392700 1381.773560,840.527527 
	C1378.879395,856.733521 1375.405640,872.864075 1371.437622,888.842224 
	C1367.517456,904.626770 1363.039429,920.298035 1358.132935,935.805908 
	C1352.063354,954.989868 1345.421631,973.997009 1338.758789,992.986328 
	C1336.865112,998.383240 1334.037109,1003.452332 1331.323730,1008.839600 
z"/>
<path fill="#E0E0DC" opacity="1.000000" stroke="none" 
	d="
M119.938766,1061.923706 
	C121.082130,1062.530273 122.681252,1062.838501 123.302292,1063.786987 
	C139.371948,1088.331177 154.591400,1113.474121 171.576324,1137.362671 
	C183.830032,1154.597046 198.163696,1170.390381 212.037048,1186.421875 
	C221.480835,1197.334717 231.225830,1208.088379 241.740723,1217.948730 
	C257.695282,1232.910034 274.445984,1247.021729 290.821198,1261.536255 
	C292.030243,1262.607910 292.939423,1264.017578 294.014374,1265.614990 
	C294.040710,1265.959961 294.005554,1265.994507 293.987427,1266.011963 
	C289.962494,1263.166016 285.649170,1260.645264 282.001923,1257.380493 
	C266.074280,1243.123047 249.923447,1229.074707 234.664948,1214.122559 
	C222.013870,1201.725342 210.354355,1188.298218 198.531937,1175.080200 
	C191.578049,1167.305420 184.961060,1159.205566 178.558151,1150.967773 
	C170.637558,1140.777344 162.622391,1130.606323 155.500443,1119.861938 
	C144.449997,1103.191040 134.105148,1086.051758 123.505699,1069.083252 
	C122.376221,1067.275146 121.542938,1065.282104 120.279327,1062.906616 
	C119.970505,1062.266846 119.954636,1062.095215 119.938766,1061.923706 
z"/>
<path fill="#E7E6E3" opacity="1.000000" stroke="none" 
	d="
M114.987274,1053.026367 
	C109.997520,1043.537109 104.723564,1034.183960 100.091148,1024.523438 
	C94.520958,1012.907288 89.008553,1001.218567 84.356079,989.218262 
	C78.164780,973.248657 72.761116,956.970947 67.152473,940.779419 
	C64.577713,933.346313 61.918179,925.904541 60.001297,918.289429 
	C55.720242,901.282349 51.682907,884.207336 47.941006,867.073792 
	C45.877617,857.625793 44.565834,848.011047 43.000874,838.457458 
	C41.355251,828.411499 39.751762,818.357544 38.271034,808.286316 
	C37.948151,806.090332 38.223804,803.806396 38.223804,801.562927 
	C38.674866,801.487488 39.125927,801.412048 39.576984,801.336609 
	C40.045074,803.396912 40.660698,805.436157 40.957020,807.520874 
	C42.724499,819.955383 43.809189,832.522217 46.269810,844.815186 
	C50.717339,867.034424 55.317905,889.263062 61.046295,911.176270 
	C69.153526,942.189453 79.741737,972.437683 92.925781,1001.696228 
	C99.484825,1016.252319 106.616554,1030.550293 113.459389,1044.979126 
	C114.092773,1046.314697 114.510056,1047.752686 115.018951,1049.909180 
	C115.002579,1051.458862 114.994926,1052.242554 114.987274,1053.026367 
z"/>
<path fill="#F4F4F0" opacity="1.000000" stroke="none" 
	d="
M1387.991211,688.581970 
	C1387.550415,689.011414 1387.115601,689.010620 1386.354980,689.015564 
	C1384.420166,673.399048 1383.178833,657.727661 1381.103882,642.167480 
	C1378.788940,624.807312 1376.293945,607.430664 1372.806152,590.278992 
	C1369.546509,574.248840 1365.220581,558.408203 1360.738159,542.662354 
	C1356.710205,528.512817 1352.457153,514.365051 1347.184937,500.646332 
	C1338.979858,479.296295 1330.058350,458.210510 1320.978149,437.212708 
	C1316.520386,426.904022 1311.014526,417.049255 1306.007935,406.976654 
	C1305.323730,405.600159 1304.785767,404.150970 1305.163208,402.228424 
	C1306.696533,404.677856 1308.464233,407.012939 1309.724487,409.595612 
	C1316.916626,424.334015 1324.484741,438.917297 1330.970093,453.964813 
	C1338.521484,471.485657 1345.755615,489.203644 1351.901123,507.253540 
	C1358.352905,526.202881 1363.774292,545.536011 1368.856567,564.908447 
	C1373.089966,581.044739 1376.760376,597.380493 1379.605347,613.813965 
	C1382.164917,628.599365 1383.318970,643.631470 1384.987183,658.566528 
	C1386.087646,668.417419 1387.000366,678.289246 1387.991211,688.581970 
z"/>
<path fill="#267973" opacity="1.000000" stroke="none" 
	d="
M743.122986,591.639648 
	C741.840759,589.809326 740.078674,587.733398 739.318359,585.339294 
	C733.097412,565.751099 729.031128,545.775208 726.844177,525.262695 
	C721.659546,476.633789 724.996338,427.897095 724.044067,379.221497 
	C723.741089,363.737488 723.879395,348.241028 724.074402,332.753571 
	C724.127991,328.490875 722.909241,326.902222 718.427429,326.920502 
	C682.118286,327.068787 645.808289,327.001404 609.498535,327.014526 
	C607.049011,327.015411 604.201660,326.469086 603.957153,330.704498 
	C602.663208,329.637634 601.403503,328.156006 599.606140,326.042023 
	C641.877197,326.042023 683.352600,326.042023 725.670166,326.042023 
	C725.670166,328.037262 725.663330,330.106873 725.671143,332.176422 
	C725.882996,388.286987 725.560730,444.406708 726.521240,500.504456 
	C727.051758,531.490479 732.055725,562.009766 743.122986,591.639648 
z"/>
<path fill="#FAFDF7" opacity="1.000000" stroke="none" 
	d="
M112.317551,417.846008 
	C112.005211,417.248993 112.003578,416.497009 112.001495,415.368866 
	C115.530777,408.333313 118.805122,401.522736 122.641106,395.044708 
	C131.863953,379.469635 141.268890,364.000336 150.778702,348.598480 
	C153.698563,343.869568 157.787323,339.799164 160.292099,334.891876 
	C164.148285,327.336945 167.099411,319.320068 170.712204,311.249390 
	C171.659103,313.405243 172.328323,315.810913 172.999374,318.607666 
	C172.347198,320.976776 172.104813,323.236938 170.973236,324.887543 
	C162.855652,336.728424 154.256119,348.248657 146.408646,360.261963 
	C139.748199,370.458160 133.854797,381.157684 127.687424,391.672882 
	C122.617867,400.316406 117.644356,409.016235 112.317551,417.846008 
z"/>
<path fill="#267973" opacity="1.000000" stroke="none" 
	d="
M640.641968,404.551697 
	C641.904907,407.071930 643.441833,409.909546 644.419556,412.928223 
	C653.135254,439.838898 654.369934,467.644653 652.699280,495.494720 
	C651.935791,508.221222 648.935181,520.977661 645.559021,533.340942 
	C641.525513,548.111145 636.249878,562.565125 630.976318,576.959717 
	C629.398987,581.265198 626.025330,584.912537 623.107422,588.845764 
	C628.816650,574.439880 636.153564,560.438354 640.734619,545.586731 
	C654.775818,500.066101 655.547974,454.164246 641.594116,408.319366 
	C641.254944,407.205322 640.967896,406.075470 640.641968,404.551697 
z"/>
<path fill="#F8FDFD" opacity="1.000000" stroke="none" 
	d="
M136.052765,202.415329 
	C136.684097,201.806732 137.367599,201.611633 138.236267,201.366058 
	C140.382584,233.625656 147.777039,264.490631 162.926758,293.659729 
	C161.801025,292.992584 160.129898,292.195557 159.553925,290.908508 
	C155.849731,282.631104 151.854004,274.424316 148.982239,265.850006 
	C145.697174,256.041595 142.987686,245.974640 140.943405,235.835480 
	C139.008942,226.240936 138.274185,216.405441 136.973312,206.681061 
	C136.799469,205.381516 136.399933,204.112167 136.052765,202.415329 
z"/>
<path fill="#F8FDFD" opacity="1.000000" stroke="none" 
	d="
M213.744522,76.982994 
	C206.690613,69.639053 199.721329,61.927902 192.628632,53.928658 
	C193.513275,53.848202 194.921524,53.701229 195.468002,54.317905 
	C201.455368,61.074612 207.318542,67.941727 213.174530,74.813721 
	C213.562866,75.269424 213.618668,76.008507 213.744522,76.982994 
z"/>
<path fill="#F8FDFD" opacity="1.000000" stroke="none" 
	d="
M179.993073,37.635876 
	C176.329987,33.268303 172.668076,28.526348 168.916641,23.453941 
	C175.104797,25.817812 177.671448,31.443350 179.993073,37.635876 
z"/>
<path fill="#F8FDFD" opacity="1.000000" stroke="none" 
	d="
M168.910645,22.774855 
	C166.362839,19.919380 163.853088,16.679585 161.205231,13.125110 
	C166.656601,13.566698 167.578110,18.163353 168.910645,22.774855 
z"/>
<path fill="#267973" opacity="1.000000" stroke="none" 
	d="
M618.836731,353.498596 
	C623.910706,355.639923 624.702881,360.659424 625.849854,365.838135 
	C623.491028,362.110718 621.196411,357.980530 618.836731,353.498596 
z"/>
<path fill="#F8FDFD" opacity="1.000000" stroke="none" 
	d="
M187.992432,47.637169 
	C185.373352,44.901833 182.760757,41.785542 180.069122,38.338497 
	C185.203018,38.888134 186.551254,43.115227 187.992432,47.637169 
z"/>
<path fill="#E7E6E3" opacity="1.000000" stroke="none" 
	d="
M36.977394,782.081909 
	C36.396732,779.620239 35.836426,777.546936 35.276119,775.473633 
	C35.991283,775.346558 36.706448,775.219482 37.421616,775.092407 
	C37.792267,778.450684 38.162918,781.809021 38.533569,785.167358 
	C38.217918,785.276123 37.902267,785.384827 37.586617,785.493591 
	C37.390327,784.485840 37.194035,783.478027 36.977394,782.081909 
z"/>
<path fill="#E7E6E3" opacity="1.000000" stroke="none" 
	d="
M37.008205,793.141968 
	C37.162418,791.680298 37.316273,790.631592 37.470127,789.582825 
	C37.826283,789.575806 38.182438,789.568787 38.538593,789.561829 
	C38.921001,792.244751 39.303410,794.927734 39.685818,797.610657 
	C39.117989,797.735596 38.550159,797.860535 37.982330,797.985474 
	C37.657505,796.508606 37.332676,795.031799 37.008205,793.141968 
z"/>
<path fill="#E0E0DC" opacity="1.000000" stroke="none" 
	d="
M115.132744,1053.345581 
	C114.994926,1052.242554 115.002579,1051.458862 115.024216,1050.280762 
	C116.730621,1052.574097 118.423050,1055.261719 120.115479,1057.949463 
	C119.592148,1058.289062 119.068825,1058.628784 118.545494,1058.968506 
	C117.456406,1057.200562 116.367310,1055.432739 115.132744,1053.345581 
z"/>
<path fill="#267973" opacity="1.000000" stroke="none" 
	d="
M765.094177,637.563354 
	C760.685425,637.433960 760.804749,633.727844 760.072754,630.247437 
	C761.743103,632.310242 763.385376,634.766846 765.094177,637.563354 
z"/>
<path fill="#F8FDFD" opacity="1.000000" stroke="none" 
	d="
M324.904388,153.393295 
	C326.581085,153.175766 327.977142,153.175766 329.373169,153.175766 
	C329.323029,153.786697 329.272888,154.397614 329.222717,155.008545 
	C327.689728,154.542633 326.156738,154.076736 324.904388,153.393295 
z"/>
<path fill="#F8FDFD" opacity="1.000000" stroke="none" 
	d="
M192.546875,53.085945 
	C191.254440,52.219181 190.134659,50.981010 188.925323,49.430447 
	C190.130341,50.316883 191.424927,51.515713 192.546875,53.085945 
z"/>
<path fill="#FAFDF7" opacity="1.000000" stroke="none" 
	d="
M323.004211,411.363129 
	C323.997162,412.089355 324.994324,413.179962 325.995728,414.634674 
	C325.002808,413.908356 324.005585,412.817902 323.004211,411.363129 
z"/>
<path fill="#E7E6E3" opacity="1.000000" stroke="none" 
	d="
M34.054783,760.366272 
	C34.766907,760.012085 35.508812,760.006775 36.621887,760.003174 
	C36.860718,761.175842 36.728382,762.346802 36.436657,764.928162 
	C35.202099,762.716858 34.643333,761.716003 34.054783,760.366272 
z"/>
<path fill="#E7E6E3" opacity="1.000000" stroke="none" 
	d="
M36.891953,769.576904 
	C36.157291,769.053528 35.494671,768.184387 34.832054,767.315186 
	C35.325596,767.022766 35.819138,766.730286 36.312683,766.437866 
	C36.529785,767.368958 36.746887,768.299988 36.891953,769.576904 
z"/>
<path fill="#267973" opacity="1.000000" stroke="none" 
	d="
M636.672546,392.527588 
	C637.409424,393.902222 638.168335,395.644409 638.867126,397.799957 
	C638.102844,396.440613 637.398743,394.667877 636.672546,392.527588 
z"/>
<path fill="#267973" opacity="1.000000" stroke="none" 
	d="
M760.111145,629.564270 
	C759.130310,628.351746 758.100769,626.792847 757.098694,624.815002 
	C758.104919,626.003357 759.083679,627.610596 760.111145,629.564270 
z"/>
<path fill="#267973" opacity="1.000000" stroke="none" 
	d="
M638.697876,398.480469 
	C639.431335,399.883301 640.170410,401.659302 640.834717,403.835327 
	C640.074463,402.441437 639.388977,400.647522 638.697876,398.480469 
z"/>
<path fill="#F4F4F0" opacity="1.000000" stroke="none" 
	d="
M1301.162354,397.854065 
	C1301.027344,394.345764 1302.007568,396.252960 1302.744263,397.243500 
	C1303.015259,397.607849 1303.154907,398.069977 1303.649292,399.104462 
	C1302.501709,398.645630 1301.874756,398.394897 1301.162354,397.854065 
z"/>
<path fill="#267973" opacity="1.000000" stroke="none" 
	d="
M633.157043,383.336426 
	C633.758301,384.166901 634.357544,385.335663 634.933716,386.894257 
	C634.325439,386.080933 633.740234,384.877808 633.157043,383.336426 
z"/>
<path fill="#267973" opacity="1.000000" stroke="none" 
	d="
M621.777588,590.272095 
	C621.559814,591.346497 621.080017,592.608276 620.233337,593.900818 
	C620.416138,592.774170 620.965881,591.616821 621.777588,590.272095 
z"/>
<path fill="#267973" opacity="1.000000" stroke="none" 
	d="
M746.951294,601.659424 
	C746.326660,600.852478 745.700867,599.708313 745.133850,598.173645 
	C745.778503,598.962891 746.364380,600.142578 746.951294,601.659424 
z"/>
<path fill="#267973" opacity="1.000000" stroke="none" 
	d="
M635.109497,388.336975 
	C635.715576,389.155365 636.313416,390.310181 636.839844,391.852356 
	C636.212646,391.050903 635.656921,389.862152 635.109497,388.336975 
z"/>
<path fill="#267973" opacity="1.000000" stroke="none" 
	d="
M752.956909,615.663757 
	C752.325317,614.886475 751.676819,613.777039 751.045227,612.285034 
	C751.688110,613.045593 752.314087,614.188538 752.956909,615.663757 
z"/>
<path fill="#F8FDFD" opacity="1.000000" stroke="none" 
	d="
M162.981369,294.420288 
	C163.668747,295.120148 164.359467,296.198761 165.085266,297.603149 
	C164.408478,296.885620 163.696594,295.842285 162.981369,294.420288 
z"/>
<path fill="#267973" opacity="1.000000" stroke="none" 
	d="
M749.870239,608.681213 
	C749.290344,608.142761 748.708313,607.288879 748.229431,606.071533 
	C748.844421,606.593933 749.356323,607.479858 749.870239,608.681213 
z"/>
<path fill="#267973" opacity="1.000000" stroke="none" 
	d="
M754.933411,619.656311 
	C754.331604,619.076172 753.703125,618.157654 753.100952,616.838867 
	C753.720459,617.398376 754.313599,618.358154 754.933411,619.656311 
z"/>
<path fill="#267973" opacity="1.000000" stroke="none" 
	d="
M616.936523,350.353210 
	C617.569397,350.838928 618.252441,351.641571 618.889343,352.822266 
	C618.224365,352.356903 617.605469,351.513519 616.936523,350.353210 
z"/>
<path fill="#267973" opacity="1.000000" stroke="none" 
	d="
M756.963745,623.664429 
	C756.355225,623.085449 755.714539,622.166748 755.100830,620.845703 
	C755.729065,621.403870 756.330322,622.364258 756.963745,623.664429 
z"/>
<path fill="#267973" opacity="1.000000" stroke="none" 
	d="
M606.925049,335.387604 
	C607.561157,335.834137 608.266602,336.587494 608.963440,337.710083 
	C608.301392,337.284363 607.647888,336.489410 606.925049,335.387604 
z"/>
<path fill="#267973" opacity="1.000000" stroke="none" 
	d="
M609.803223,339.489136 
	C610.469360,339.929016 611.202881,340.678406 611.892212,341.813324 
	C611.188843,341.398773 610.529785,340.598694 609.803223,339.489136 
z"/>
<path fill="#267973" opacity="1.000000" stroke="none" 
	d="
M767.142029,640.615967 
	C766.490417,640.156311 765.769531,639.383484 765.076416,638.229919 
	C765.760376,638.666992 766.416626,639.484863 767.142029,640.615967 
z"/>
<path fill="#267973" opacity="1.000000" stroke="none" 
	d="
M604.813232,332.488800 
	C605.476807,332.913696 606.216614,333.644165 606.933960,334.755249 
	C606.237488,334.355377 605.563477,333.574860 604.813232,332.488800 
z"/>
<path fill="#267973" opacity="1.000000" stroke="none" 
	d="
M748.414612,605.455200 
	C747.976440,604.994446 747.520203,604.172791 747.092407,602.947266 
	C747.546082,603.393677 747.971252,604.243958 748.414612,605.455200 
z"/>
<path fill="#F8FDFD" opacity="1.000000" stroke="none" 
	d="
M342.704437,156.114441 
	C342.787109,156.406189 342.696655,156.792831 342.485687,156.876862 
	C342.314850,156.944901 341.999054,156.648865 341.747528,156.514313 
	C341.991425,156.369064 342.235352,156.223831 342.704437,156.114441 
z"/>
<path fill="#267973" opacity="1.000000" stroke="none" 
	d="
M745.283325,597.560547 
	C744.879089,597.128845 744.463562,596.356140 744.079956,595.215759 
	C744.498657,595.638550 744.885376,596.429138 745.283325,597.560547 
z"/>
<path fill="#267973" opacity="1.000000" stroke="none" 
	d="
M625.700073,366.442383 
	C626.115356,366.846924 626.548889,367.584747 626.982666,368.680267 
	C626.561340,368.283875 626.139832,367.529785 625.700073,366.442383 
z"/>
<path fill="#267973" opacity="1.000000" stroke="none" 
	d="
M770.378601,645.438721 
	C769.994751,645.329834 769.548096,644.922058 769.110474,644.171570 
	C769.518250,644.265808 769.917053,644.702759 770.378601,645.438721 
z"/>
<path fill="#267973" opacity="1.000000" stroke="none" 
	d="
M769.149048,643.643799 
	C768.816284,643.511841 768.434998,643.090698 768.016479,642.367249 
	C768.353027,642.494873 768.726746,642.924744 769.149048,643.643799 
z"/>
<path fill="#267973" opacity="1.000000" stroke="none" 
	d="
M744.172363,594.594238 
	C743.821289,594.352051 743.461060,593.743896 743.116821,592.751648 
	C743.476379,592.987793 743.819824,593.608093 744.172363,594.594238 
z"/>
<path fill="#267973" opacity="1.000000" stroke="none" 
	d="
M611.815369,342.379944 
	C612.159241,342.514526 612.550842,342.945923 612.972534,343.689880 
	C612.622742,343.560516 612.242920,343.118622 611.815369,342.379944 
z"/>
<path fill="#267973" opacity="1.000000" stroke="none" 
	d="
M631.963501,380.327209 
	C632.281372,380.531006 632.605042,381.054016 632.926575,381.904907 
	C632.606079,381.703979 632.287720,381.175201 631.963501,380.327209 
z"/>
<path fill="#267973" opacity="1.000000" stroke="none" 
	d="
M631.052612,378.310486 
	C631.358215,378.492859 631.654907,378.972626 631.964233,379.749847 
	C631.665833,379.567444 631.354797,379.087646 631.052612,378.310486 
z"/>
<path fill="#267973" opacity="1.000000" stroke="none" 
	d="
M751.092773,611.646912 
	C750.762024,611.441711 750.420837,610.910767 750.088562,610.040894 
	C750.425720,610.241760 750.754028,610.781433 751.092773,611.646912 
z"/>
<path fill="#267973" opacity="1.000000" stroke="none" 
	d="
M628.898193,373.349243 
	C629.229797,373.553772 629.575500,374.085388 629.913940,374.957336 
	C629.575256,374.757233 629.243713,374.216766 628.898193,373.349243 
z"/>
<path fill="#267973" opacity="1.000000" stroke="none" 
	d="
M627.926331,371.328247 
	C628.257751,371.503113 628.595032,371.989258 628.934204,372.791565 
	C628.601501,372.618317 628.266846,372.128937 627.926331,371.328247 
z"/>
<path fill="#267973" opacity="1.000000" stroke="none" 
	d="
M626.964111,369.312164 
	C627.292175,369.489685 627.616272,369.974762 627.948486,370.769836 
	C627.624390,370.593079 627.292236,370.106415 626.964111,369.312164 
z"/>
<path fill="#267973" opacity="1.000000" stroke="none" 
	d="
M771.296936,646.601318 
	C771.050598,646.680969 770.696838,646.474304 770.286743,645.951538 
	C770.550110,645.861938 770.869873,646.088501 771.296936,646.601318 
z"/>
<path fill="#267973" opacity="1.000000" stroke="none" 
	d="
M603.932617,331.321594 
	C604.162842,331.264130 604.453491,331.483582 604.804749,331.979187 
	C604.574585,332.036377 604.283813,331.817413 603.932617,331.321594 
z"/>
<path fill="#E7E6E3" opacity="1.000000" stroke="none" 
	d="
M119.777588,1062.031982 
	C119.954636,1062.095215 119.970505,1062.266846 119.999863,1062.696045 
	C119.881027,1062.682495 119.748718,1062.411499 119.777588,1062.031982 
z"/>
<path fill="#F8FDFD" opacity="1.000000" stroke="none" 
	d="
M188.843658,48.913719 
	C188.630371,48.961224 188.349655,48.754921 188.024933,48.279644 
	C188.246033,48.227081 188.511124,48.443493 188.843658,48.913719 
z"/>
<path fill="#267973" opacity="1.000000" stroke="none" 
	d="
M619.712219,593.961182 
	C619.908447,594.188171 619.777893,594.468506 619.356323,594.835693 
	C619.268616,594.664856 619.375366,594.362183 619.712219,593.961182 
z"/>
<path fill="#267973" opacity="1.000000" stroke="none" 
	d="
M622.610962,588.875366 
	C622.740112,589.081055 622.619568,589.401428 622.284058,589.870728 
	C622.166504,589.676392 622.263916,589.333191 622.610962,588.875366 
z"/>
<path fill="#F8FDFD" opacity="1.000000" stroke="none" 
	d="
M337.449646,156.532684 
	C337.416199,156.476837 337.483124,156.588531 337.449646,156.532684 
z"/>
<path fill="#F4F4F0" opacity="1.000000" stroke="none" 
	d="
M1304.462891,400.447296 
	C1304.521484,400.411774 1304.404419,400.482819 1304.462891,400.447296 
z"/>
<path fill="#267973" opacity="1.000000" stroke="none" 
	d="
M630.165527,376.330933 
	C630.385559,376.336517 630.608093,376.638397 630.865723,377.229004 
	C630.656555,377.220886 630.412354,376.924072 630.165527,376.330933 
z"/>
<path fill="#F8FDFD" opacity="1.000000" stroke="none" 
	d="
M165.114487,298.101501 
	C165.432388,297.927704 165.674835,298.128387 165.794144,298.725159 
	C165.501923,298.837219 165.291275,298.622131 165.114487,298.101501 
z"/>
<path fill="#267973" opacity="1.000000" stroke="none" 
	d="
M615.017273,347.301422 
	C615.239502,347.284515 615.514465,347.564423 615.845154,348.142639 
	C615.623901,348.160004 615.346985,347.879120 615.017273,347.301422 
z"/>
<path fill="#267973" opacity="1.000000" stroke="none" 
	d="
M613.048706,344.283081 
	C613.263855,344.264130 613.528625,344.530823 613.851562,345.080841 
	C613.639221,345.098969 613.368774,344.833832 613.048706,344.283081 
z"/>
<path fill="#267973" opacity="1.000000" stroke="none" 
	d="
M608.971802,338.302063 
	C609.196960,338.253143 609.475464,338.479492 609.809814,338.978455 
	C609.585510,339.026489 609.305359,338.801910 608.971802,338.302063 
z"/>
<path fill="#F8FDFD" opacity="1.000000" stroke="none" 
	d="
M140.868042,203.501358 
	C143.799774,205.958099 146.842697,208.731461 149.856323,211.867767 
	C146.877762,209.426437 143.928497,206.622208 140.868042,203.501358 
z"/>
<path fill="#CBF5F4" opacity="1.000000" stroke="none" 
	d="
M447.884247,377.473755 
	C448.476440,376.596832 449.242249,376.011200 450.102753,375.046753 
	C451.908752,377.075043 453.620056,379.482086 455.331390,381.889099 
	C455.040253,382.150452 454.749115,382.411804 454.457977,382.673157 
	C452.324615,381.037109 450.191223,379.401031 447.884247,377.473755 
z"/>
<path fill="#F8FDFD" opacity="1.000000" stroke="none" 
	d="
M469.140503,462.877625 
	C469.167419,462.895538 469.075989,463.039703 469.075989,463.039703 
	C469.075989,463.039703 469.221222,462.905426 469.172974,462.850769 
	C469.124725,462.796082 469.113617,462.859741 469.140503,462.877625 
z"/>
<path fill="#F8FDFD" opacity="1.000000" stroke="none" 
	d="
M139.906006,202.338989 
	C140.137634,202.272995 140.435776,202.483688 140.804367,202.968979 
	C140.574051,203.034286 140.273285,202.824997 139.906006,202.338989 
z"/>
<path fill="#CBF5F4" opacity="1.000000" stroke="none" 
	d="
M448.989197,372.708984 
	C448.755219,372.751801 448.480774,372.521240 448.167053,372.017426 
	C448.401428,371.974640 448.675079,372.205109 448.989197,372.708984 
z"/>
<path fill="#CBF5F4" opacity="1.000000" stroke="none" 
	d="
M446.011719,368.707886 
	C445.782654,368.761383 445.509460,368.551514 445.193695,368.078583 
	C445.423279,368.025208 445.695465,368.234863 446.011719,368.707886 
z"/>
<path fill="#CBF5F4" opacity="1.000000" stroke="none" 
	d="
M445.125732,367.585632 
	C444.884003,367.634705 444.575470,367.405579 444.240356,366.877014 
	C444.495483,366.820831 444.777222,367.064148 445.125732,367.585632 
z"/>
<path fill="#FEFFFE" opacity="1.000000" stroke="none" 
	d="
M151.043091,81.319809 
	C151.639450,81.452316 152.276459,81.905052 152.953217,82.677979 
	C152.356552,82.545456 151.720154,82.092743 151.043091,81.319809 
z"/>
</svg>