<svg version="1.1" id="Layer_1" xmlns="http://www.w3.org/2000/svg" xmlns:xlink="http://www.w3.org/1999/xlink" x="0px" y="0px"
	 width="100%" viewBox="0 0 816 1024" enable-background="new 0 0 816 1024" xml:space="preserve">
<path fill="#000000" opacity="1.000000" stroke="none" 
	d="
M621.707153,662.943848 
	C615.708740,665.323120 609.895203,666.335083 603.790588,666.318848 
	C578.460693,666.251648 553.120422,665.931702 527.802795,666.517822 
	C502.139435,667.111938 479.376221,659.195435 458.231964,645.369629 
	C438.859070,632.702271 419.845642,619.425232 398.562561,609.965271 
	C379.685028,601.574524 359.839325,596.814209 339.423279,594.348389 
	C321.254608,592.154114 303.038269,590.228271 285.403595,585.082336 
	C263.861847,578.796265 249.817368,565.221313 246.236588,542.510742 
	C244.111084,529.030090 246.805878,516.039124 252.075089,503.514130 
	C257.309662,491.071533 264.290009,479.434753 268.988129,466.753723 
	C273.872894,453.569031 276.737885,439.948486 277.726135,425.914551 
	C277.996613,422.073242 276.439850,420.624939 272.658875,420.296021 
	C240.059021,417.459778 215.686478,401.532501 198.959549,373.597107 
	C198.447433,372.741852 198.045120,371.821533 197.571960,370.942139 
	C196.038040,368.091400 194.583664,365.175140 196.805527,362.072815 
	C199.055862,358.930756 202.339279,359.531097 205.483749,360.074921 
	C211.375626,361.093872 217.252106,362.201904 223.258179,363.011505 
	C217.400925,360.229370 211.627380,357.338257 206.081085,353.994812 
	C178.200546,337.187469 163.481903,311.781464 157.811066,280.422150 
	C157.781509,280.258728 157.756577,280.090271 157.762177,279.925293 
	C157.898743,275.896698 156.109253,271.181976 160.430695,268.418365 
	C164.800537,265.623840 167.771606,269.465393 171.077530,271.516174 
	C180.777863,277.533661 190.072311,284.246979 201.773102,289.673248 
	C187.533203,276.695526 176.926743,262.777313 170.521988,245.957565 
	C163.879745,228.514160 161.528503,210.566238 164.678482,192.048828 
	C165.269562,188.574188 165.852753,185.069489 169.981552,183.779633 
	C174.014252,182.519836 176.128540,185.173538 178.391373,187.663467 
	C204.563904,216.462830 233.957581,241.365219 267.702576,260.900757 
	C284.857056,270.831787 302.375641,280.136658 319.475128,290.158875 
	C337.553894,300.755066 353.938354,313.345306 366.492126,330.590179 
	C381.560364,351.289093 386.622101,374.493439 385.113953,399.488434 
	C383.716248,422.653290 374.780304,443.010010 361.083618,461.465942 
	C359.064148,464.187164 357.062103,467.116394 353.028961,466.049042 
	C348.981140,464.977844 348.374023,461.578552 347.564636,457.974731 
	C342.543671,435.619232 330.569397,422.673004 306.750885,421.125061 
	C302.281372,420.834534 297.171326,419.862701 293.433838,421.567047 
	C288.962280,423.606232 291.697113,429.345551 291.099213,433.397827 
	C287.833618,455.531372 280.981354,476.419098 270.541199,496.194244 
	C264.940125,506.803467 259.634155,517.504761 259.090424,529.932922 
	C258.212952,549.990051 268.169403,565.019836 287.223419,571.634033 
	C301.341370,576.534851 316.151062,578.048340 330.835999,579.530090 
	C373.847870,583.869995 413.184784,597.612915 448.490936,622.853699 
	C461.351074,632.047607 474.695679,640.588013 489.539093,646.497253 
	C499.591431,650.499023 510.026978,652.563904 520.720886,652.583069 
	C549.044617,652.633667 577.369080,652.274414 605.693176,652.065369 
	C614.589355,651.999756 622.678650,650.059753 627.540161,641.658203 
	C632.450745,633.171692 630.402466,626.989319 621.303589,623.338867 
	C611.207703,619.288391 600.328918,618.159424 589.867676,615.446655 
	C582.449585,613.523071 575.155579,611.257019 567.900879,608.787598 
	C553.907959,604.024536 542.755493,595.287048 533.023804,584.492676 
	C503.122375,551.325928 473.249603,518.133362 443.371094,484.945984 
	C424.069336,463.506683 413.456116,438.459625 411.552246,409.604492 
	C409.772461,382.629852 411.120422,355.643127 410.737946,328.665405 
	C410.681183,324.659485 412.580536,321.870270 416.956635,321.769989 
	C421.222412,321.672180 423.318542,324.211578 423.792450,328.201721 
	C424.027161,330.177917 424.009735,332.190063 424.017731,334.186310 
	C424.096954,354.016052 424.273499,373.846375 424.197449,393.675629 
	C424.070129,426.887238 434.202026,455.729736 457.373352,480.384552 
	C484.749207,509.513092 511.326538,539.428894 537.373535,569.756226 
	C553.944397,589.050171 574.842529,598.976990 599.048401,603.719727 
	C606.554077,605.190369 614.015991,606.949707 621.409790,608.909607 
	C631.587830,611.607666 639.932373,616.557678 642.331482,627.908386 
	C645.022339,640.639343 640.024231,650.379578 630.249512,658.060669 
	C627.796204,659.988403 624.806946,661.234192 621.707153,662.943848 
M300.780609,295.781158 
	C299.772064,295.196442 298.778473,294.584015 297.752838,294.031006 
	C255.079285,271.020752 213.991364,245.799850 180.409302,210.073364 
	C179.516754,209.123810 178.681320,207.481033 176.673950,208.269867 
	C176.950912,229.905136 184.335388,249.008240 197.583618,265.788452 
	C212.218414,284.324890 231.712860,296.853912 251.983856,308.279358 
	C265.043213,315.640045 278.194672,322.839691 291.182953,330.323059 
	C296.333313,333.290527 296.653717,335.334808 294.225769,340.058929 
	C291.792938,344.792511 288.603882,343.445801 285.047546,341.626984 
	C270.660431,334.268951 256.123230,327.256653 240.912262,321.689453 
	C219.442993,313.831665 198.691376,304.400848 179.009201,292.696777 
	C177.724152,291.932648 176.427155,290.453949 174.330917,291.662506 
	C178.130966,305.246124 184.619553,317.273682 194.321121,327.482269 
	C210.497864,344.504456 231.220642,353.213135 253.223938,359.658752 
	C266.815155,363.640137 280.664490,366.500824 294.410828,369.814728 
	C296.507019,370.320038 299.238037,370.139954 299.704132,373.376740 
	C300.725342,380.468842 297.715302,383.515778 290.626923,382.428467 
	C289.147827,382.201599 287.646637,382.060944 286.196808,381.710205 
	C263.567352,376.235809 240.264526,378.940063 216.362854,375.289856 
	C218.494720,378.082672 219.751846,380.023743 221.293930,381.703186 
	C233.449844,394.941772 248.402634,402.907501 266.189362,405.755432 
	C280.583710,408.060181 295.106995,406.675720 309.530792,407.694916 
	C330.085114,409.147278 345.466736,418.707642 354.805176,437.394623 
	C355.486633,438.758362 355.467834,440.746918 357.624054,441.113464 
	C359.596405,439.409882 360.647125,437.098633 361.739502,434.897308 
	C371.932495,414.355835 375.107788,392.857269 369.889862,370.403290 
	C364.381622,346.699982 350.199768,328.906677 331.117096,314.572601 
	C321.764526,307.547333 311.579987,301.864838 300.780609,295.781158 
z"/>
</svg>